<svg xmlns="http://www.w3.org/2000/svg" viewBox="0 0 422.55 516.01"><defs><style>.a{fill:#f2f2f2;}.b{fill:#8b6238;}.c{fill:#60d1d6;}.d{fill:#29abe2;}.e{fill:#1b1464;}.f{fill:#ffe76e;}.g{fill:#10364b;}.h{fill:#ff667c;}.i{fill:#66318d;}.j{fill:red;}.k{fill:#902b8b;}.l{fill:#e6ccc3;}.m{fill:#42210b;}</style></defs><title>POPPETJES</title><path class="a" d="M14.58,245.26H160.92a27.84,27.84,0,0,0-12.4-42.83,34.18,34.18,0,0,0-44.91-22.58,49.36,49.36,0,0,0-67.5,14.34,27.84,27.84,0,0,0-21.52,51.07Z"/><path class="b" d="M292.07,369.12a4,4,0,0,0,.21-7.93,52.56,52.56,0,0,1-16.36-6.05c-9.6-5.73-13.65-13.72-12-23.76A4,4,0,1,0,256,330.1c-1.36,8.39.27,15.86,4.86,22.19,9.72,13.43,29.34,16.67,30.17,16.8A3.93,3.93,0,0,0,292.07,369.12Z"/><path class="c" d="M307.7,353.77s-8.23,6.12-22.58,1.81l-9.48,14.21A62.49,62.49,0,0,0,304,378.65C322.2,379.7,307.7,353.77,307.7,353.77Z"/><polygon class="d" points="301.47 514.55 320.95 514.51 316.25 502.42 311.04 500.27 310.13 509.74 301.47 514.55"/><polygon class="d" points="247.16 514.55 266.63 514.51 261.94 502.42 256.72 500.27 255.81 509.74 247.16 514.55"/><path class="e" d="M310,508.69l10.26-8c-9.23-11.86-22.74-31.29-23.88-37.34-.9-4.78,6.31-21.65,13.6-34.41l-11.28-6.45c-4.1,7.17-17.31,31.49-15.09,43.26C285.76,477.07,306,503.5,310,508.69Z"/><path class="e" d="M253.51,507.66l12.54-3.42c-4-14.5-9-37.63-7.68-43.66,1-4.74,14.14-17.55,25.79-26.53l-7.94-10.29c-6.54,5-28.08,22.41-30.57,34.13C243.27,469.15,251.78,501.33,253.51,507.66Z"/><path class="c" d="M283.08,374.74c1.57-13,12.24-26,31.84-18.39,28.09,11,6.2,62.25-5,84.68-3.28,6.56-3.33,11.48-10.53,10.1-.21,0-37-15.31-37.23-15.4-10.29-5-.67-12.89,10.27-30.16a51.25,51.25,0,0,0,2.56-4.47C278.68,393.63,281.53,387.47,283.08,374.74Z"/><polygon class="f" points="147.54 514.55 128.06 514.51 132.76 502.42 137.97 500.27 138.88 509.74 147.54 514.55"/><polygon class="f" points="201.85 514.55 182.37 514.51 187.07 502.42 192.29 500.27 193.2 509.74 201.85 514.55"/><path class="g" d="M139,508.69l-10.26-8c9.23-11.86,22.74-31.29,23.88-37.34.9-4.78-6.31-21.65-13.6-34.41l11.28-6.45c4.1,7.17,17.31,31.49,15.09,43.26C163.25,477.07,143,503.5,139,508.69Z"/><path class="g" d="M195.5,507.66,183,504.24c4-14.5,9-37.63,7.68-43.66-1-4.74-14.14-17.55-25.79-26.53l7.94-10.29c6.54,5,28.08,22.41,30.57,34.13C205.74,469.15,197.23,501.33,195.5,507.66Z"/><path class="h" d="M165.93,374.74c-1.57-13-12.24-26-31.84-18.39-36.2,14.13,10.61,95.22,10.61,95.22s44.55-4.18,51.25-22.66c-1,.61-16.91-17.77-21.91-27.82C170.33,393.63,167.48,387.47,165.93,374.74Z"/><path class="i" d="M145.72,351.13c3.24-4.79-.46-8.6-1.25-9.71-2.57-3.59-5.22-2.51-7.92-.89a11.92,11.92,0,0,0-3.75,4c-1.25,2.47,1.35,5.33,3.74,6.33C142.48,353.36,144.68,352.62,145.72,351.13Z"/><rect class="i" x="135.97" y="344.03" width="6.7" height="13.38" rx="3.35" ry="3.35" transform="translate(347.54 665.45) rotate(168.17)"/><path class="j" d="M136,351.42c3.27-.47,1.24-5.66,1.25-5.66,4,3.51,2.35-.77,1.23-2.11a8.9,8.9,0,0,0,2.93-1,3.3,3.3,0,0,0,2-2.44c.52-5.75-7.67-2.94-9.93-1.23s-4,4.39-3.31,7.38C130.79,348.83,133.15,351.83,136,351.42Z"/><path class="k" d="M115.07,360.65a4,4,0,0,1-1.5-.29c-.78-.32-19.15-7.91-25.58-23.2-3-7.2-2.93-14.84.3-22.71a4,4,0,0,1,7.4,3c-3.86,9.4-1.72,18.1,6.34,25.86a52.68,52.68,0,0,0,14.56,9.6,4,4,0,0,1-1.51,7.7Z"/><path class="h" d="M136.9,355.29a35,35,0,0,1-24.65-4.57l-9.17,14s8.86,8.27,24.18,13.2C144.25,383.39,136.9,355.29,136.9,355.29Z"/><path class="g" d="M206.61,516H87.77a1.1,1.1,0,0,1-1.2-.95,1,1,0,0,1,1-.94H206.37c.9,0,1.43.42,1.43.94A1.1,1.1,0,0,1,206.61,516Z"/><path class="g" d="M242.4,516H361.24a1.1,1.1,0,0,0,1.2-.95,1,1,0,0,0-1-.94H242.64c-.9,0-1.43.42-1.43.94A1.1,1.1,0,0,0,242.4,516Z"/><path class="c" d="M355.7,40.41A68.18,68.18,0,0,1,222,13.48h0L155.18,0A136.37,136.37,0,0,0,422.55,53.87L355.7,40.4Z"/><rect class="f" x="96.06" y="304.62" height="24.23" transform="translate(-232.72 354.79) rotate(-79.73)"/><rect class="l" x="95.75" y="304.62" width="0.63" height="24.23" transform="translate(-232.72 354.79) rotate(-79.73)"/><rect class="f" x="143.77" y="313.29" height="24.19" transform="translate(-202.03 408.83) rotate(-79.73)"/><rect class="l" x="143.46" y="313.29" width="0.63" height="24.19" transform="translate(-202.03 408.83) rotate(-79.73)"/><polygon class="f" points="183.83 308.01 183.83 308.01 192.47 260.33 192.47 260.33 183.83 308.01"/><rect class="l" x="163.92" y="283.86" width="48.46" height="0.63" transform="translate(-125.01 418.64) rotate(-79.73)"/><rect class="f" x="131.85" y="323.2" height="0.04" transform="matrix(0.18, -0.98, 0.98, 0.18, -209.7, 395.33)"/><polygon class="l" points="131.93 322.91 131.81 323.53 131.88 322.91 131.93 322.91"/><polygon class="f" points="192.47 260.33 192.47 260.33 201.12 212.64 201.12 212.64 192.47 260.33"/><rect class="l" x="172.56" y="236.17" width="48.46" height="0.63" transform="translate(-70.99 387.96) rotate(-79.73)"/><polygon class="f" points="201.12 212.64 201.12 212.64 209.75 164.96 209.75 164.96 201.12 212.64"/><rect class="l" x="181.2" y="188.49" width="48.46" height="0.63" transform="translate(-16.97 357.28) rotate(-79.73)"/><rect class="f" x="130.63" y="113.88" height="24.23" transform="translate(-16.64 232.06) rotate(-79.73)"/><rect class="l" x="130.31" y="113.88" width="0.63" height="24.23" transform="translate(-16.64 232.06) rotate(-79.73)"/><rect class="f" x="178.33" y="122.55" height="24.19" transform="translate(14.05 286.11) rotate(-79.73)"/><rect class="l" x="178.02" y="122.55" width="0.63" height="24.19" transform="translate(14.05 286.11) rotate(-79.73)"/><rect class="f" x="166.41" y="132.46" height="0.04" transform="translate(6.38 272.61) rotate(-79.73)"/><polygon class="l" points="166.49 132.18 166.38 132.79 166.45 132.17 166.49 132.18"/><polygon class="f" points="120.99 247.38 129.63 199.69 138.27 152.01 142.59 128.16 142.55 128.16 133.91 175.84 125.27 223.53 116.63 271.21 107.99 318.9 108.03 318.9 112.35 295.06 120.99 247.38"/><polygon class="l" points="142.9 128.22 108.28 319.27 107.66 319.16 107.68 318.84 142.29 127.79 142.91 127.9 142.9 128.22"/><rect class="f" x="76.15" y="280.78" width="48.46" height="24.23" transform="translate(-205.71 339.45) rotate(-79.73)"/><path class="l" d="M117,271l-8.75,48.3-24.46-4.43,8.75-48.3Zm-9.26,47.57,8.53-47.06L93,267.26l-8.53,47.06Z"/><rect class="f" x="84.79" y="233.09" width="48.46" height="24.23" transform="translate(-151.69 308.77) rotate(-79.73)"/><path class="l" d="M125.63,223.27l-8.75,48.31-24.46-4.43,8.75-48.31Zm-9.26,47.57,8.53-47.07-23.22-4.21-8.53,47.07Z"/><rect class="f" x="93.44" y="185.41" width="48.46" height="24.23" transform="translate(-97.67 278.09) rotate(-79.73)"/><path class="l" d="M134.27,175.59l-8.75,48.3-24.46-4.43,8.75-48.3ZM125,223.16l8.53-47.07-23.22-4.21L101.79,219Z"/><polygon class="f" points="144.79 251.69 120.99 247.38 112.35 295.06 136.15 299.37 140.47 275.53 144.79 251.69"/><path class="l" d="M145.16,251.44l-8.75,48.3L112,295.32l8.75-48.3ZM135.89,299l8.53-47.06-23.18-4.2-8.53,47.06Z"/><polygon class="f" points="149.11 227.85 153.43 204 129.63 199.69 120.99 247.38 144.79 251.69 149.11 227.85"/><path class="l" d="M153.8,203.75,145,252.06l-24.42-4.42,8.75-48.31Zm-9.26,47.57,8.53-47.07-23.18-4.2-8.53,47.07Z"/><polygon class="f" points="157.75 180.16 162.07 156.32 138.27 152.01 129.63 199.69 153.43 204 157.75 180.16"/><path class="l" d="M162.44,156.07l-8.75,48.3-24.42-4.42,8.75-48.3Zm-9.26,47.57,8.53-47.07-23.18-4.2L130,199.44Z"/><polygon class="f" points="164.31 279.85 140.51 275.54 136.19 299.38 131.87 323.22 155.67 327.54 159.99 303.69 164.31 279.85"/><path class="l" d="M164.68,279.6l-8.75,48.3-24.42-4.42,8.75-48.3Zm-9.26,47.57,8.53-47.06-23.18-4.2L132.24,323Z"/><rect class="f" x="126.22" y="287.43" width="24.23" height="0.04" transform="translate(-169.18 372.32) rotate(-79.73)"/><polygon class="l" points="140.82 275.6 136.45 299.75 135.82 299.64 135.84 299.32 140.21 275.17 140.84 275.28 140.82 275.6"/><polygon class="f" points="144.83 251.7 140.51 275.54 164.31 279.85 168.63 256.01 172.95 232.17 149.15 227.85 144.83 251.7"/><path class="l" d="M173.32,231.91l-8.75,48.31-24.42-4.42,8.75-48.31Zm-9.26,47.57,8.53-47.07-23.18-4.2-8.53,47.07Z"/><rect class="f" x="130.54" y="263.59" width="24.23" height="0.04" transform="translate(-142.17 356.98) rotate(-79.73)"/><polygon class="l" points="145.2 251.44 140.77 275.9 140.15 275.79 140.16 275.48 144.53 251.32 145.2 251.44"/><rect class="f" x="134.86" y="239.75" width="24.23" height="0.04" transform="translate(-115.16 341.64) rotate(-79.73)"/><polygon class="l" points="149.46 227.91 145.09 252.06 144.47 251.95 144.48 251.63 148.85 227.48 149.48 227.59 149.46 227.91"/><polygon class="f" points="149.15 227.85 172.95 232.17 177.27 208.32 181.59 184.48 157.79 180.17 153.47 204.01 149.15 227.85"/><path class="l" d="M182,184.23l-8.75,48.3-24.42-4.42,8.75-48.3ZM172.7,231.8l8.53-47.07L158,180.53l-8.53,47.07Z"/><rect class="f" x="139.18" y="215.91" width="24.23" height="0.04" transform="translate(-88.15 326.3) rotate(-79.73)"/><polygon class="l" points="153.78 204.07 149.41 228.22 148.79 228.11 148.8 227.79 153.18 203.64 153.8 203.75 153.78 204.07"/><rect class="f" x="143.5" y="192.06" width="24.23" height="0.04" transform="translate(-61.14 310.96) rotate(-79.73)"/><polygon class="l" points="158.1 180.22 153.73 204.38 153.11 204.26 153.12 203.95 157.5 179.79 158.12 179.91 158.1 180.22"/><polygon class="f" points="164.31 279.85 159.99 303.69 183.83 308.01 192.47 260.33 168.63 256.01 164.31 279.85"/><path class="l" d="M192.84,260.08l-8.75,48.3-24.46-4.43,8.75-48.3Zm-9.26,47.57,8.53-47.06-23.22-4.21-8.53,47.06Z"/><rect class="f" x="109.97" y="297.05" width="24.23" height="24.19" transform="translate(-203.86 374.15) rotate(-79.73)"/><path class="l" d="M136.52,299.12l-4.43,24.46-24.42-4.42,4.43-24.46Zm-4.94,23.73,4.21-23.22-23.18-4.2-4.21,23.22Z"/><rect class="f" x="121.9" y="311.28" width="24.23" height="0.04" transform="translate(-196.19 387.66) rotate(-79.73)"/><polygon class="l" points="136.5 299.44 132.13 323.59 131.5 323.48 131.52 323.16 135.89 299.01 136.51 299.12 136.5 299.44"/><rect class="f" x="157.64" y="305.66" width="24.23" height="24.23" transform="translate(-173.2 428.15) rotate(-79.73)"/><path class="l" d="M184.2,307.76l-4.43,24.46-24.46-4.43,4.43-24.46Zm-4.94,23.73,4.21-23.22-23.22-4.21L156,327.28Z"/><polygon class="f" points="172.95 232.17 168.63 256.01 192.47 260.33 201.12 212.64 177.27 208.32 172.95 232.17"/><path class="l" d="M201.48,212.39l-8.75,48.31-24.46-4.43L177,208ZM192.22,260l8.53-47.07-23.22-4.21L169,255.76Z"/><polygon class="f" points="181.59 184.48 177.27 208.32 201.12 212.64 209.75 164.96 185.91 160.64 181.59 184.48"/><path class="l" d="M210.12,164.71,201.37,213l-24.46-4.43,8.75-48.3Zm-9.26,47.57,8.53-47.07L186.17,161l-8.53,47.07Z"/><rect class="f" x="102.08" y="137.72" width="48.46" height="24.23" transform="translate(-43.65 247.41) rotate(-79.73)"/><path class="l" d="M142.91,127.9l-8.75,48.3-24.46-4.43,8.75-48.3Zm-9.26,47.57,8.53-47.07L119,124.2l-8.53,47.07Z"/><rect class="f" x="140.22" y="130.15" width="24.23" height="24.19" transform="translate(-14.79 266.77) rotate(-79.73)"/><path class="l" d="M166.76,132.22l-4.43,24.46-24.42-4.42,4.43-24.46ZM161.82,156,166,132.73l-23.18-4.2-4.21,23.22Z"/><polygon class="f" points="157.79 180.17 181.59 184.48 185.91 160.64 190.23 136.8 166.43 132.48 162.11 156.33 157.79 180.17"/><path class="l" d="M190.6,136.54l-8.75,48.3-24.42-4.42,8.75-48.3Zm-9.26,47.57,8.53-47.07-23.18-4.2-8.53,47.07Z"/><rect class="f" x="147.82" y="168.22" width="24.23" height="0.04" transform="translate(-34.13 295.62) rotate(-79.73)"/><polygon class="l" points="162.42 156.38 158.05 180.53 157.38 180.41 161.82 155.95 162.44 156.07 162.42 156.38"/><rect class="f" x="152.14" y="144.38" width="24.23" height="0.04" transform="translate(-7.12 280.28) rotate(-79.73)"/><polygon class="l" points="166.74 132.54 162.37 156.69 161.75 156.58 161.76 156.26 166.14 132.11 166.76 132.22 166.74 132.54"/><rect class="f" x="187.88" y="138.76" width="24.23" height="24.23" transform="translate(15.88 320.77) rotate(-79.73)"/><path class="l" d="M214.44,140.86,210,165.32l-24.46-4.43L190,136.43Zm-4.94,23.73,4.21-23.22-23.22-4.21-4.21,23.22Z"/><path class="k" d="M163.31,358.26a4,4,0,0,1-3-7.34,52.56,52.56,0,0,0,13.16-11.45c7-8.76,7.91-17.67,2.84-26.47a4,4,0,1,1,6.93-4c4.24,7.37,5.36,14.93,3.31,22.47-4.34,16-21.54,26-22.27,26.39A3.93,3.93,0,0,1,163.31,358.26Z"/><path class="h" d="M147.65,354.18a35,35,0,0,0,22.25-11.56l12.86,10.71S176.7,363.82,163.48,373C148.82,383.2,147.65,354.18,147.65,354.18Z"/><polygon class="l" points="207.4 362.33 290.14 163.35 399.68 348.93 207.4 362.33"/><path class="b" d="M304.29,352.13c-3.24-4.79.46-8.6,1.25-9.71,2.57-3.59,5.22-2.51,7.92-.89a11.92,11.92,0,0,1,3.75,4c1.25,2.47-1.35,5.33-3.74,6.33C307.53,354.36,305.33,353.62,304.29,352.13Z"/><rect class="b" x="307.35" y="345.03" width="6.7" height="13.38" rx="3.35" ry="3.35" transform="translate(78.67 -56.2) rotate(11.83)"/><path class="m" d="M319.83,347.32c.73-3-1-5.63-3.31-7.38s-10.45-4.52-9.93,1.23a3.3,3.3,0,0,0,2,2.44,8.9,8.9,0,0,0,2.93,1c-1.12,1.34-2.73,5.62,1.23,2.11,0,0-2,5.19,1.25,5.66C316.86,352.83,319.22,349.83,319.83,347.32Z"/><path class="b" d="M290.82,356.42a4,4,0,0,1-1.41-.6c-.7-.47-17.11-11.69-20.25-28-1.48-7.67.19-15.13,5-22.16a4,4,0,0,1,6.61,4.5c-5.71,8.41-5.42,17.36.87,26.61a52.68,52.68,0,0,0,12.27,12.4,4,4,0,0,1-3.07,7.23Z"/><path class="c" d="M313.29,355.68a35,35,0,0,1-23.18-9.55l-11.86,11.8s7,9.92,20.94,17.9C314.69,384.69,313.29,355.68,313.29,355.68Z"/></svg>