<svg xmlns="http://www.w3.org/2000/svg" viewBox="0 0 318.81 552.32"><defs><style>.a{fill:#ff667c;}.b{fill:#60d1d6;}.c{fill:#f2f2f2;}.d{fill:#e6ccc3;}.e{fill:#10364b;}.f{fill:#000200;}.g{fill:#ffe76e;}</style></defs><title>POPPETJES</title><path class="a" d="M129.57,171a4,4,0,0,1-1.35-7.76h0c.13,0,13.36-5,16.69-16.07,2.27-7.57-.46-16.61-8.1-26.85a4,4,0,1,1,6.41-4.79c9.26,12.42,12.4,23.85,9.33,34-4.53,15-20.94,21-21.64,21.24A4,4,0,0,1,129.57,171Z"/><path class="b" d="M129.22,159.2c-1.43-1.63-.22,2.63-27,6.21-19.36,3.29,17.42,17,17.42,17s18.46-11.15,17.84-13.3S130.65,160.83,129.22,159.2Z"/><path class="c" d="M131.59,271.23H313.32a27.17,27.17,0,0,0-12.1-41.8,33.35,33.35,0,0,0-45.45-21.37,47.93,47.93,0,0,0-26.8-8.14,48.63,48.63,0,0,0-5.3.29,48.16,48.16,0,0,0-85.82,25q-.06.63-.11,1.26a27.16,27.16,0,0,0-6.15,44.75Z"/><path class="a" d="M174.47,357.62a4,4,0,0,0-6.35,4.43c2.23,6,2.16,11.4-.21,16.57-5.55,12.08-21.65,18.14-21.81,18.2a4,4,0,0,0,2.77,7.51c.79-.29,19.4-7.3,26.32-22.37,3.26-7.1,3.4-14.74.43-22.71A4,4,0,0,0,174.47,357.62Z"/><path class="d" d="M133.07,398a35,35,0,0,0,23.85-7.74l10.92,12.68s-7.71,9.35-22.26,16.24C129.44,426.77,133.07,398,133.07,398Z"/><polygon class="b" points="115.98 550.4 135.45 550.21 130.66 538.15 125.43 536.05 124.59 545.52 115.98 550.4"/><polygon class="b" points="63.47 550.32 82.94 550.12 78.15 538.06 72.92 535.96 72.08 545.44 63.47 550.32"/><path class="e" d="M124.48,544.47l10.19-8.07c-9.32-11.79-23-31.11-24.17-37.15-.94-4.77,6.14-21.7,13.33-34.51l-11.33-6.36c-4,7.2-17.06,31.62-14.75,43.38C100,513,120.41,539.32,124.48,544.47Z"/><path class="e" d="M68,543.9l12.51-3.52c-4.07-14.47-9.26-37.56-8-43.59,1-4.75,14-17.66,25.57-26.73l-8-10.23c-6.5,5.1-27.9,22.64-30.29,34.37C57.42,505.46,66.18,537.57,68,543.9Z"/><path class="d" d="M103.77,417.71c1.47-13,12-26.13,31.69-18.64,36.31,13.84-9.85,95.3-9.85,95.3S81,490.54,74.18,472.12c3.64-3.78,16.76-17.9,21.69-28C99.52,436.64,102.33,430.45,103.77,417.71Z"/><path class="a" d="M123.8,393.94c-3.28-4.77.39-8.6,1.17-9.72,2.54-3.61,5.2-2.55,7.92-1a11.92,11.92,0,0,1,3.78,4c1.27,2.46-1.31,5.34-3.69,6.36C127.05,396.14,124.85,395.42,123.8,393.94Z"/><rect class="a" x="126.85" y="386.79" width="6.7" height="13.38" rx="3.35" ry="3.35" transform="translate(80.13 -17.95) rotate(11.37)"/><path class="f" d="M139.3,389c.7-3-1-5.62-3.37-7.36S125.44,377.22,126,383a3.3,3.3,0,0,0,2,2.42,8.9,8.9,0,0,0,2.94,1c-1.11,1.35-2.69,5.64,1.25,2.11,0,0-2,5.21,1.3,5.65C136.37,394.54,138.71,391.52,139.3,389Z"/><path class="a" d="M116.84,257.64l13.65-2.84s2.05,26.75-2.22,36.95c-5.16,12.31-15.92,38.6-12.08,40.13,3.49,1.39,3.4,3.81,3.4,3.81l-10.3-1S120.86,285.25,116.84,257.64Z"/><path class="a" d="M97.11,255.25l13.9-1s-1.52,26.78-7.11,36.32c-6.75,11.52-20.9,36.14-17.3,38.17,3.28,1.84,2.81,3.94,2.81,3.94l-9.95-1S97.43,283.15,97.11,255.25Z"/><path class="e" d="M111.95,146.22c-7.15-5.8-16.16,2.71-18.46,9.5a12.74,12.74,0,0,0-6.89,5.85c-2.13,3.69-.89,8.5-4.9,9.82-3.38,1.11-5.94-.46-8.77,2.25-2.37,2.28-2.95,6.23-2.16,9.32,1.93,7.61,9.48,7.76,15.59,4.76a17.77,17.77,0,0,0,9.55-12.49,9,9,0,0,0,1.45-.65,8,8,0,0,0,3.49-3.78c4.63-1.14,8.9-6.24,9.27-11.52C114.83,156.44,117.54,150.75,111.95,146.22Z"/><path class="b" d="M113.68,163.55c-43.18,7-7.41,53.87-18.48,68.8l34.24,6.95A360.32,360.32,0,0,1,125.67,197c-.08-4.5,3.19-11.68,3.17-19.21C128.81,162.21,123.4,162,113.68,163.55Z"/><path class="e" d="M97.41,222.66s-11.3,31-2.13,54.24c0,0,17.64,9.25,34.94,7,0,0,7.12-16-2.75-60.25C127.47,223.69,114.93,232.43,97.41,222.66Z"/><rect class="g" x="96.4" y="239.22" width="22.45" height="214.09" transform="translate(462.68 272.66) rotate(95.56)"/><path class="a" d="M95,347.66a4,4,0,0,1,5.17,5.77c-3.55,5.31-4.73,10.6-3.6,16.18,2.62,13,16.9,22.63,17,22.72a4,4,0,0,1-4.42,6.67c-.7-.46-17.2-11.56-20.48-27.81-1.54-7.66.07-15.13,4.79-22.2A4,4,0,0,1,95,347.66Z"/><path class="d" d="M126,396.43a35,35,0,0,1-21.43-13L91,393.25s5.35,10.87,17.93,20.92C122.89,425.31,126,396.43,126,396.43Z"/><path class="a" d="M89,175a4,4,0,0,1-1.35-.24c-.69-.25-17.08-6.31-21.56-21.32-3-10.16.15-21.59,9.46-34a4,4,0,0,1,6.4,4.81c-7.68,10.22-10.44,19.24-8.2,26.83,3.29,11.12,16.5,16.08,16.63,16.13A4,4,0,0,1,89,175Z"/><path class="b" d="M86,164.88c.93-2,.92,2.47,27.66-1.33,19.53-2.08-12.16,21.11-12.16,21.11s-20.79-5.73-20.78-8S85.09,166.83,86,164.88Z"/><path class="a" d="M102.46,154.59a33,33,0,0,0,1,12.22c1.66,5.87,10.13,3.92,8.47-1.95a20.79,20.79,0,0,1-.85-7.47c.23-2.47-.82-5-3.36-5.84-2.11-.68-5.06.55-5.28,3Z"/><path class="a" d="M106.65,146.65c-4.86,2.06-3.92,6.8-3.87,8,.18,4,2.75,4.52,5.62,4.62a10.87,10.87,0,0,0,4.87-1.22c2.18-1.27,1.62-4.75.28-6.7C110.24,146.55,108.2,146,106.65,146.65Z"/><path class="e" d="M102.83,157.94a22.43,22.43,0,0,1-7.08,2.1c3.47-5.33,3-10.84,11.44-14.35C107.39,150.86,107.43,155.49,102.83,157.94Z"/><path class="b" d="M87.36,180.21s3.49.9,4.64,11.71c.81,7.62,8.43-2,8.43-2l-2.7-12.2Z"/><path class="e" d="M179.37,552.32H60.53a1.1,1.1,0,0,1-1.2-.95,1,1,0,0,1,1-.94H179.14c.9,0,1.43.42,1.43.94A1.1,1.1,0,0,1,179.37,552.32Z"/><path class="d" d="M85.24,43.76a33.85,33.85,0,0,1,47.87,47.87h0L157,115.57A67.7,67.7,0,0,0,61.3,19.83L85.24,43.77Z"/><path class="g" d="M133.34,91.4A33.85,33.85,0,0,1,85.47,43.53h0L61.54,19.59a67.7,67.7,0,0,0,95.74,95.74L133.34,91.39Z"/></svg>