<svg xmlns="http://www.w3.org/2000/svg" viewBox="0 0 388.69 477.72"><defs><style>.a{fill:#f2f2f2;}.b{fill:#e6ccc3;}.c{fill:#ffe76e;}.d{fill:#60d1d6;}.e{fill:#ff667c;}.f{fill:#10364b;}.g{fill:#000200;}</style></defs><title>POPPETJES</title><path class="a" d="M78,141.13H259.77a27.17,27.17,0,0,0-12.1-41.8A33.35,33.35,0,0,0,202.22,78a47.93,47.93,0,0,0-26.8-8.14,48.63,48.63,0,0,0-5.3.29,48.16,48.16,0,0,0-85.82,25q-.06.63-.11,1.26A27.16,27.16,0,0,0,78,141.13Z"/><rect class="b" x="163.41" y="177.04" width="24.23" transform="translate(-9.47 344.16) rotate(-87.34)"/><rect class="c" x="163.41" y="176.72" width="24.23" height="0.63" transform="translate(-9.47 344.16) rotate(-87.34)"/><rect class="b" x="161.18" y="225.47" width="24.19" transform="translate(-59.99 388.1) rotate(-87.34)"/><rect class="c" x="161.18" y="225.15" width="24.19" height="0.63" transform="translate(-59.99 388.1) rotate(-87.34)"/><polygon class="b" points="195.79 262.88 195.79 262.88 244.2 265.13 244.2 265.13 195.79 262.88"/><rect class="c" x="219.68" y="239.77" width="0.63" height="48.46" transform="translate(-53.92 471.52) rotate(-87.34)"/><rect class="b" x="173.81" y="213.37" width="0.04" transform="translate(-47.36 377.12) rotate(-87.34)"/><polygon class="c" points="174.15 213.41 173.52 213.38 174.15 213.36 174.15 213.41"/><polygon class="b" points="244.2 265.13 244.2 265.13 292.61 267.37 292.61 267.37 244.2 265.13"/><rect class="c" x="268.09" y="242.02" width="0.63" height="48.46" transform="translate(-10 522.02) rotate(-87.34)"/><polygon class="b" points="292.61 267.37 292.61 267.37 341.02 269.62 341.02 269.62 292.61 267.37"/><rect class="c" x="316.5" y="244.27" width="0.63" height="48.46" transform="translate(33.92 572.52) rotate(-87.34)"/><rect class="b" x="357.04" y="186.03" width="24.23" transform="translate(166.21 546.16) rotate(-87.34)"/><rect class="c" x="357.04" y="185.71" width="24.23" height="0.63" transform="translate(166.21 546.16) rotate(-87.34)"/><rect class="b" x="354.82" y="234.46" width="24.19" transform="translate(115.69 590.1) rotate(-87.34)"/><rect class="c" x="354.82" y="234.14" width="24.19" height="0.63" transform="translate(115.69 590.1) rotate(-87.34)"/><rect class="b" x="367.45" y="222.36" width="0.04" transform="translate(128.31 579.12) rotate(-87.34)"/><polygon class="c" points="367.79 222.4 367.16 222.37 367.79 222.35 367.79 222.4"/><polygon class="b" points="247.57 192.56 295.98 194.8 344.39 197.05 368.6 198.18 368.6 198.13 320.19 195.88 271.78 193.64 223.37 191.39 174.96 189.14 174.96 189.19 199.16 190.31 247.57 192.56"/><polygon class="c" points="368.58 198.49 174.63 189.49 174.66 188.86 174.97 188.83 368.93 197.83 368.9 198.46 368.58 198.49"/><rect class="b" x="187.61" y="153.93" width="24.23" height="48.46" transform="translate(12.49 369.41) rotate(-87.34)"/><path class="c" d="M223.67,191.72l-49-2.28,1.15-24.83,49,2.28Zm-48.38-2.88,47.78,2.22,1.09-23.58-47.78-2.22Z"/><rect class="b" x="236.02" y="156.18" width="24.23" height="48.46" transform="translate(56.41 419.91) rotate(-87.34)"/><path class="c" d="M272.08,194l-49-2.28,1.15-24.83,49,2.28Zm-48.38-2.88,47.78,2.22,1.09-23.58-47.78-2.22Z"/><rect class="b" x="284.43" y="158.43" width="24.23" height="48.46" transform="translate(100.33 470.41) rotate(-87.34)"/><path class="c" d="M320.49,196.21l-49-2.28,1.15-24.83,49,2.28Zm-48.38-2.88,47.78,2.22L321,172l-47.78-2.22Z"/><polygon class="b" points="246.45 216.72 247.57 192.56 199.16 190.31 198.04 214.47 222.25 215.59 246.45 216.72"/><path class="c" d="M246.75,217l-49-2.28L198.86,190l49,2.28Zm-48.38-2.88,47.78,2.22,1.09-23.53-47.78-2.22Z"/><polygon class="b" points="270.65 217.84 294.86 218.96 295.98 194.8 247.57 192.56 246.45 216.72 270.65 217.84"/><path class="c" d="M295.16,219.29l-49-2.28,1.15-24.79,49,2.28Zm-48.38-2.88,47.78,2.22,1.09-23.53-47.78-2.22Z"/><polygon class="b" points="319.06 220.09 343.27 221.21 344.39 197.05 295.98 194.8 294.86 218.96 319.06 220.09"/><path class="c" d="M343.57,221.54l-49-2.28,1.15-24.79,49,2.28Zm-48.38-2.88L343,220.88l1.09-23.53-47.78-2.22Z"/><polygon class="b" points="221.12 239.8 222.24 215.64 198.04 214.51 173.83 213.39 172.71 237.55 196.92 238.67 221.12 239.8"/><path class="c" d="M221.42,240.13l-49-2.28,1.15-24.79,49,2.28ZM173,237.25l47.78,2.22,1.09-23.53-47.78-2.22Z"/><rect class="b" x="210.12" y="202.94" width="0.04" height="24.23" transform="translate(-14.43 415) rotate(-87.34)"/><polygon class="c" points="222.23 215.95 197.71 214.81 197.74 214.19 198.06 214.16 222.57 215.29 222.55 215.92 222.23 215.95"/><polygon class="b" points="246.45 216.76 222.24 215.64 221.12 239.8 245.33 240.92 269.53 242.04 270.65 217.88 246.45 216.76"/><path class="c" d="M269.83,242.37l-49-2.28,1.15-24.79,49,2.28Zm-48.38-2.88,47.78,2.22,1.09-23.53L222.54,216Z"/><rect class="b" x="234.32" y="204.06" width="0.04" height="24.23" transform="translate(7.53 440.25) rotate(-87.34)"/><polygon class="c" points="246.75 217.09 221.91 215.94 221.94 215.31 222.26 215.28 246.78 216.42 246.75 217.09"/><rect class="b" x="258.53" y="205.19" width="0.04" height="24.23" transform="translate(29.49 465.5) rotate(-87.34)"/><polygon class="c" points="270.64 218.2 246.12 217.06 246.15 216.43 246.47 216.4 270.98 217.54 270.95 218.17 270.64 218.2"/><polygon class="b" points="270.65 217.88 269.53 242.04 293.74 243.17 317.94 244.29 319.06 220.13 294.86 219.01 270.65 217.88"/><path class="c" d="M318.24,244.62l-49-2.28,1.15-24.79,49,2.28Zm-48.38-2.88L317.64,244l1.09-23.53L271,218.21Z"/><rect class="b" x="282.73" y="206.31" width="0.04" height="24.23" transform="translate(51.45 490.75) rotate(-87.34)"/><polygon class="c" points="294.84 219.32 270.32 218.19 270.35 217.56 270.67 217.53 295.19 218.66 295.16 219.29 294.84 219.32"/><rect class="b" x="306.94" y="207.43" width="0.04" height="24.23" transform="translate(73.41 516) rotate(-87.34)"/><polygon class="c" points="319.05 220.45 294.53 219.31 294.56 218.68 294.87 218.65 319.39 219.79 319.37 220.42 319.05 220.45"/><polygon class="b" points="221.12 239.8 196.92 238.67 195.79 262.88 244.2 265.13 245.33 240.92 221.12 239.8"/><path class="c" d="M244.5,265.45l-49-2.28,1.15-24.83,49,2.28Zm-48.38-2.88,47.78,2.22L245,241.22,197.22,239Z"/><rect class="b" x="174.41" y="189.71" width="24.19" height="24.23" transform="translate(-23.76 378.77) rotate(-87.34)"/><path class="c" d="M198.34,214.8l-24.83-1.15,1.15-24.79L199.49,190ZM174.17,213l23.57,1.09,1.09-23.53-23.57-1.09Z"/><rect class="b" x="185.92" y="201.81" width="0.04" height="24.23" transform="translate(-36.38 389.75) rotate(-87.34)"/><polygon class="c" points="198.02 214.83 173.5 213.69 173.53 213.06 173.85 213.03 198.37 214.17 198.34 214.8 198.02 214.83"/><rect class="b" x="172.14" y="238.1" width="24.23" height="24.23" transform="translate(-74.24 422.67) rotate(-87.34)"/><path class="c" d="M196.09,263.21l-24.83-1.15,1.15-24.83,24.83,1.15Zm-24.18-1.75,23.57,1.09L196.59,239,173,237.88Z"/><polygon class="b" points="269.53 242.04 245.33 240.92 244.2 265.13 292.61 267.37 293.74 243.17 269.53 242.04"/><path class="c" d="M292.91,267.7l-49-2.28L245,240.59l49,2.28Zm-48.38-2.88L292.31,267l1.09-23.58-47.78-2.22Z"/><polygon class="b" points="317.94 244.29 293.74 243.17 292.61 267.37 341.02 269.62 342.14 245.42 317.94 244.29"/><path class="c" d="M341.32,269.95l-49-2.28,1.15-24.83,49,2.28Zm-48.38-2.88,47.78,2.22,1.09-23.58L294,243.5Z"/><rect class="b" x="332.84" y="160.67" width="24.23" height="48.46" transform="translate(144.25 520.91) rotate(-87.34)"/><path class="c" d="M368.9,198.46l-49-2.28L321,171.35l49,2.28Zm-48.38-2.88,47.78,2.22,1.09-23.58L321.61,172Z"/><rect class="b" x="343.84" y="197.58" width="24.19" height="24.23" transform="translate(129.96 555.52) rotate(-87.34)"/><path class="c" d="M367.77,222.66l-24.83-1.15,1.15-24.79,24.83,1.15Zm-24.18-1.75L367.17,222l1.09-23.53-23.57-1.09Z"/><polygon class="b" points="319.06 220.13 317.94 244.29 342.14 245.42 366.35 246.54 367.47 222.38 343.27 221.26 319.06 220.13"/><path class="c" d="M366.65,246.87l-49-2.28,1.15-24.79,49,2.28ZM318.27,244,366,246.21l1.09-23.53-47.78-2.22Z"/><rect class="b" x="331.14" y="208.56" width="0.04" height="24.23" transform="translate(95.37 541.25) rotate(-87.34)"/><polygon class="c" points="343.25 221.57 318.73 220.43 318.76 219.76 343.6 220.91 343.57 221.54 343.25 221.57"/><rect class="b" x="355.35" y="209.68" width="0.04" height="24.23" transform="translate(117.33 566.5) rotate(-87.34)"/><polygon class="c" points="367.46 222.69 342.94 221.56 342.97 220.93 343.28 220.9 367.8 222.04 367.77 222.66 367.46 222.69"/><rect class="b" x="341.57" y="245.96" width="24.23" height="24.23" transform="translate(79.48 599.42) rotate(-87.34)"/><path class="c" d="M365.53,271.07l-24.83-1.15,1.15-24.83,24.83,1.15Zm-24.18-1.75,23.57,1.09L366,246.84l-23.57-1.09Z"/><path class="d" d="M46.21,192.48A64.22,64.22,0,0,0,51.65,64.16L54.38,0,182.7,5.44,171.81,262.09,43.49,256.64Z"/><path class="e" d="M357,283a4,4,0,0,0-6.35,4.43c2.23,6,2.16,11.4-.21,16.57-5.55,12.08-21.65,18.14-21.81,18.2a4,4,0,1,0,2.77,7.51c.79-.29,19.4-7.3,26.32-22.37,3.26-7.1,3.4-14.74.43-22.71A4,4,0,0,0,357,283Z"/><path class="d" d="M315.61,323.36a35,35,0,0,0,23.85-7.74l10.92,12.68s-7.71,9.35-22.26,16.24C312,352.18,315.61,323.36,315.61,323.36Z"/><polygon class="d" points="298.52 475.81 318 475.62 313.2 463.56 307.97 461.45 307.14 470.93 298.52 475.81"/><polygon class="d" points="246.02 475.72 265.49 475.53 260.7 463.47 255.47 461.37 254.63 470.84 246.02 475.72"/><path class="f" d="M307,469.88l10.19-8.07c-9.32-11.79-23-31.11-24.17-37.15-.94-4.77,6.14-21.7,13.33-34.51L295,383.79c-4,7.2-17.06,31.62-14.75,43.38C282.51,438.46,303,464.73,307,469.88Z"/><path class="f" d="M250.51,469.3,263,465.78c-4.07-14.47-9.26-37.56-8-43.59,1-4.75,14-17.66,25.57-26.73l-8-10.23c-6.5,5.1-27.9,22.64-30.29,34.37C240,430.87,248.73,463,250.51,469.3Z"/><path class="d" d="M286.32,343.12c1.47-13,12-26.13,31.69-18.64,36.31,13.84-9.85,95.3-9.85,95.3s-44.59-3.83-51.43-22.25c3.64-3.78,16.76-17.9,21.69-28C282.07,362,284.87,355.86,286.32,343.12Z"/><path class="e" d="M306.34,319.34c-3.28-4.77.39-8.6,1.17-9.72,2.54-3.61,5.2-2.55,7.92-1a11.92,11.92,0,0,1,3.78,4c1.27,2.46-1.31,5.34-3.69,6.36C309.6,321.55,307.4,320.83,306.34,319.34Z"/><rect class="e" x="309.4" y="312.2" width="6.7" height="13.38" rx="3.35" ry="3.35" transform="translate(69.01 -55.4) rotate(11.37)"/><path class="g" d="M321.84,314.42c.7-3-1-5.62-3.37-7.36s-10.49-4.43-9.92,1.31a3.3,3.3,0,0,0,2,2.42,8.9,8.9,0,0,0,2.94,1c-1.11,1.35-2.69,5.64,1.25,2.11,0,0-2,5.21,1.3,5.65C318.91,320,321.25,316.93,321.84,314.42Z"/><path class="e" d="M81,398.6l13.31-4.14s4.61,26.43,1.33,37c-4,12.75-12.15,39.94-8.18,41.1C91,473.6,91.19,476,91.19,476H80.84S87.62,425.7,81,398.6Z"/><path class="e" d="M60.11,398.21l13.74-2.33s1.05,26.81-3.59,36.84c-5.61,12.11-17.35,38-13.56,39.65,3.44,1.52,3.18,3.66,3.18,3.66h-10S63.1,425.95,60.11,398.21Z"/><path class="f" d="M76.55,295.53c-7.16-5.78-16.16,2.74-18.44,9.54a12.74,12.74,0,0,0-6.88,5.86c-2.12,3.69-.87,8.5-4.89,9.83-3.38,1.12-5.94-.45-8.76,2.27-2.37,2.28-2.93,6.24-2.15,9.33,1.94,7.61,9.5,7.75,15.6,4.73a17.77,17.77,0,0,0,9.53-12.51,9,9,0,0,0,1.45-.65,8,8,0,0,0,3.48-3.79c4.63-1.15,8.89-6.25,9.25-11.53C79.45,305.75,82.15,300.05,76.55,295.53Z"/><path class="e" d="M94.22,320.26a4,4,0,0,1-1.36-7.76h0c.13,0,13.35-5,16.66-16.1,2.25-7.58-.49-16.61-8.15-26.84a4,4,0,1,1,6.41-4.8c9.28,12.4,12.44,23.83,9.39,34-4.51,15-20.91,21-21.6,21.28A4,4,0,0,1,94.22,320.26Z"/><path class="c" d="M78.31,312.85C35.15,320,71,366.74,60,381.69l34.26,6.89a360.32,360.32,0,0,1-3.85-42.34c-.09-4.5,3.17-11.69,3.14-19.22C93.44,311.48,88,311.25,78.31,312.85Z"/><path class="f" d="M62.15,372s-11.24,31-2,54.24c0,0,17.66,9.22,35,7,0,0,7.09-16-2.86-60.25C92.21,373,79.69,381.74,62.15,372Z"/><path class="c" d="M93.85,308.48c-1.43-1.62-.22,2.63-27,6.26-19.36,3.32,17.45,17,17.45,17s18.43-11.18,17.82-13.34S95.27,310.1,93.85,308.48Z"/><rect class="c" x="183.12" y="80.34" width="22.45" height="388.07" transform="matrix(-0.05, 1, -1, -0.05, 477.2, 92.59)"/><path class="e" d="M277.5,273.07a4,4,0,0,1,5.17,5.77c-3.55,5.31-4.73,10.6-3.6,16.18,2.62,13,16.9,22.63,17,22.72a4,4,0,0,1-4.42,6.67c-.7-.46-17.2-11.56-20.48-27.81-1.54-7.66.07-15.13,4.79-22.2A4,4,0,0,1,277.5,273.07Z"/><path class="d" d="M308.53,321.83a35,35,0,0,1-21.43-13l-13.54,9.83s5.35,10.87,17.93,20.92C305.44,350.71,308.53,321.83,308.53,321.83Z"/><path class="e" d="M53.68,324.3a4,4,0,0,1-1.35-.23c-.7-.25-17.09-6.28-21.6-21.28-3.05-10.15.11-21.59,9.39-34a4,4,0,0,1,6.41,4.8c-7.66,10.23-10.41,19.26-8.15,26.84,3.31,11.12,16.53,16.05,16.66,16.1a4,4,0,0,1-1.36,7.76Z"/><path class="c" d="M50.66,314.24c.93-2,.93,2.47,27.65-1.38C97.84,310.74,66.19,334,66.19,334s-20.8-5.69-20.8-7.93S49.73,316.19,50.66,314.24Z"/><path class="e" d="M67.08,303.92a33,33,0,0,0,1,12.22c1.67,5.87,10.13,3.9,8.46-2a20.79,20.79,0,0,1-.87-7.47c.22-2.47-.83-5-3.37-5.83-2.11-.68-5.05.56-5.28,3Z"/><path class="e" d="M71.26,296c-4.86,2.06-3.91,6.81-3.85,8.05.19,4,2.76,4.51,5.63,4.61a10.87,10.87,0,0,0,4.87-1.23c2.18-1.27,1.61-4.75.27-6.7C74.84,295.86,72.8,295.34,71.26,296Z"/><path class="f" d="M67.45,307.26a22.43,22.43,0,0,1-7.07,2.11c3.46-5.33,3-10.85,11.42-14.37C72,300.18,72,304.81,67.45,307.26Z"/><path class="c" d="M52,329.56s3.49.89,4.67,11.7c.83,7.62,8.43-2.05,8.43-2.05L62.39,327Z"/><path class="f" d="M98.3,477.72H31.77a1.1,1.1,0,0,1-1.2-.94,1,1,0,0,1,1-.94H98.06c.9,0,1.43.42,1.43.94A1.1,1.1,0,0,1,98.3,477.72Z"/><path class="f" d="M324.91,477.72H206.07a1.1,1.1,0,0,1-1.2-.94,1,1,0,0,1,1-.94H324.68c.9,0,1.43.42,1.43.94A1.1,1.1,0,0,1,324.91,477.72Z"/></svg>