<svg xmlns="http://www.w3.org/2000/svg" viewBox="0 0 409.23 486.16"><defs><style>.a{fill:#f2f2f2;}.b{fill:#8b6238;}.c{fill:#000200;}.d{fill:#ff667c;}.e{fill:#10364b;}.f{fill:#808082;}.g{fill:#ed1c24;}.h{fill:#fbb03b;}.i{fill:#c6b198;}.j{fill:#ffe76e;}.k{fill:#e6ccc3;}</style></defs><title>POPPETJES</title><path class="a" d="M172.29,419.08H318.62a27.84,27.84,0,0,0-12.4-42.83,34.18,34.18,0,0,0-44.91-22.58A49.36,49.36,0,0,0,193.81,368a27.84,27.84,0,0,0-21.52,51.07Z"/><path class="a" d="M194.39,265.44H7.2a35.61,35.61,0,0,1,15.87-54.79,43.73,43.73,0,0,1,57.45-28.88,63.14,63.14,0,0,1,86.34,18.34,35.62,35.62,0,0,1,27.53,65.33Z"/><path class="b" d="M341.88,340.33a4.15,4.15,0,0,1-1.18-1c-25.44-30.84-26.55-58.12-26.59-59.27a4.15,4.15,0,0,1,8.3-.26h0c0,.25,1.18,25.75,24.69,54.24a4.15,4.15,0,0,1-5.23,6.27Z"/><path class="b" d="M352.48,319.93a30,30,0,0,1-3.66,10.51c-2.79,4.79-9.79,1.16-7-3.63a18.88,18.88,0,0,0,2.44-6.38c.36-2.22,1.86-4.23,4.27-4.38,2-.13,4.32,1.63,4,3.87Z"/><path class="b" d="M349.74,312c4.2,3.2,2.11,7.56,1.74,8.76-1.17,3.85-3.78,3.69-6.59,3.08a10.87,10.87,0,0,1-4.41-2.39c-1.79-1.77-.38-5,1.39-6.56C346.29,311,348.4,311,349.74,312Z"/><ellipse class="c" cx="353.2" cy="319.98" rx="7.89" ry="6.14" transform="translate(9.47 650.1) rotate(-86.02)"/><path class="c" d="M348.71,311.54s-2.26,4.17,2.09,5.88S354.61,311.58,348.71,311.54Z"/><path class="d" d="M265.39,327.61a4,4,0,0,1-1.36-7.76h0c.13,0,13.35-5,16.66-16.1,2.25-7.58-.49-16.61-8.15-26.84a4,4,0,0,1,6.41-4.8c9.28,12.4,12.44,23.83,9.39,34-4.51,15-20.91,21-21.6,21.28A4,4,0,0,1,265.39,327.61Z"/><path class="e" d="M175.68,486.16H56.84a1.1,1.1,0,0,1-1.2-.94,1,1,0,0,1,1-.94H175.45c.9,0,1.43.42,1.43.94A1.1,1.1,0,0,1,175.68,486.16Z"/><path class="e" d="M315.08,408.73c-12.09,19.7-5.62,60.67-5.62,60.67l5.77.16s2.48-41.35,13.88-51.28l3.64.48a260.72,260.72,0,0,0,15.59,49.08l6.1.52s-6.58-35.72-7-47.6-4-1.25-4.85-15.94C342.13,396.48,323.85,394.44,315.08,408.73Z"/><path class="d" d="M309.46,469.4c.5,8.48-1,9.84-3,10.74-4.3,1.86-3.58,4.53-3.58,4.53h11.79l.59-15.12Z"/><path class="d" d="M348.35,467.82c2.79,9.85,2.84,11.41.77,12.31-4.3,1.86-3.58,4.53-3.58,4.53h11.79l-2.89-16.33Z"/><polygon class="e" points="149.29 485.3 168.76 485.11 163.97 473.05 158.74 470.94 157.91 480.42 149.29 485.3"/><polygon class="e" points="96.79 485.21 116.26 485.02 111.47 472.96 106.23 470.86 105.4 480.33 96.79 485.21"/><path class="e" d="M157.8,479.37,168,471.3c-9.32-11.79-23-31.11-24.17-37.15-.94-4.77,6.14-21.7,13.33-34.51l-11.33-6.36c-4,7.2-17.06,31.62-14.75,43.38C133.28,447.94,153.72,474.22,157.8,479.37Z"/><path class="e" d="M101.28,478.79l12.51-3.52c-4.07-14.47-9.26-37.56-8-43.59,1-4.75,14-17.66,25.57-26.73l-8-10.23c-6.5,5.1-27.9,22.64-30.29,34.37C90.73,440.36,99.5,472.47,101.28,478.79Z"/><path class="f" d="M137.09,352.61c1.47-13,12-26.13,31.69-18.64,36.31,13.84-9.85,95.3-9.85,95.3s-44.59-3.83-51.43-22.25c3.64-3.78,16.76-17.9,21.69-28C132.84,371.53,135.64,365.35,137.09,352.61Z"/><path class="d" d="M114.43,282.56a4,4,0,0,1,7.52,1c7.39,37.82,20.61,43,20.74,43a4.06,4.06,0,0,1,2.51,5,3.94,3.94,0,0,1-4.86,2.62c-1.81-.53-17.88-6.37-26.24-49.16A4,4,0,0,1,114.43,282.56Z"/><path class="f" d="M157.74,331.8A35,35,0,0,1,136.2,319l-13.46,9.95s5.44,10.82,18.11,20.76C154.9,360.7,157.74,331.8,157.74,331.8Z"/><path class="d" d="M157.11,328.83c-3.28-4.77.39-8.6,1.17-9.72,2.54-3.61,5.2-2.55,7.92-1a11.92,11.92,0,0,1,3.78,4c1.27,2.46-1.31,5.34-3.69,6.36C160.37,331,158.17,330.32,157.11,328.83Z"/><rect class="d" x="160.17" y="321.69" width="6.7" height="13.38" rx="3.35" ry="3.35" transform="translate(67.95 -25.79) rotate(11.37)"/><path class="c" d="M172.61,323.91c.7-3-1-5.62-3.37-7.36s-10.49-4.43-9.92,1.31a3.3,3.3,0,0,0,2,2.42,8.9,8.9,0,0,0,2.94,1c-1.11,1.35-2.69,5.64,1.25,2.11,0,0-2,5.21,1.3,5.65C169.68,329.44,172,326.42,172.61,323.91Z"/><path class="d" d="M244.08,406.31l-13.31-4.14s-4.61,26.43-1.33,37c4,12.75,12.15,39.94,8.18,41.1-3.61,1.05-3.75,3.47-3.75,3.47h10.35S237.44,433.41,244.08,406.31Z"/><path class="d" d="M263.42,406.06l-13.74-2.33s-1.05,26.81,3.59,36.84c5.61,12.11,17.35,38,13.56,39.65-3.44,1.52-3.18,3.66-3.18,3.66h10S260.43,433.8,263.42,406.06Z"/><path class="g" d="M237.75,302.78c7.16-5.78,16.16,2.74,18.44,9.54a12.74,12.74,0,0,1,6.88,5.86c2.12,3.69.87,8.5,4.89,9.83,3.38,1.12,5.94-.45,8.76,2.27,2.37,2.28,2.93,6.24,2.15,9.33-1.94,7.61-9.5,7.75-15.6,4.73a17.77,17.77,0,0,1-9.53-12.51,9,9,0,0,1-1.45-.65,8,8,0,0,1-3.48-3.79c-4.63-1.15-8.89-6.25-9.25-11.53C234.86,313,232.15,307.31,237.75,302.78Z"/><path class="d" d="M224.85,331.65a4,4,0,0,1-1.35-.23c-.7-.25-17.09-6.28-21.6-21.28-3.05-10.15.11-21.59,9.39-34a4,4,0,0,1,6.41,4.8c-7.66,10.23-10.41,19.26-8.15,26.84,3.31,11.12,16.53,16.05,16.66,16.1a4,4,0,0,1-1.36,7.76Z"/><path class="h" d="M249.48,320.2c-38.37,6.33-14.71,41.69-16.64,60.48-.37,3.64,2.59,9.22,6.17,9.94L255.66,394c4.71.95,7.83-9.49,7.25-14.26-1-8.39-1.13-14.45-1.37-26.12-.09-4.5,3.17-11.69,3.14-19.22C264.61,318.83,259.2,318.6,249.48,320.2Z"/><path class="e" d="M262.9,379.7s11.24,31,2,54.24c0,0-17.66,9.22-35,7,0,0-7.09-16,2.86-60.25C232.84,380.68,245.36,389.44,262.9,379.7Z"/><path class="h" d="M221.83,321.58c.93-2,.93,2.47,27.65-1.38,19.52-2.12-12.12,21.13-12.12,21.13s-20.8-5.69-20.8-7.93S220.9,323.54,221.83,321.58Z"/><path class="h" d="M265,315.83c-1.43-1.62-.22,2.63-27,6.26-19.36,3.32,17.45,17,17.45,17s18.43-11.18,17.82-13.34S266.45,317.45,265,315.83Z"/><path class="d" d="M247.23,311.18a33,33,0,0,1-1,12.22c-1.67,5.87-10.13,3.9-8.46-2a20.79,20.79,0,0,0,.87-7.47c-.22-2.47.83-5,3.37-5.83,2.11-.68,5.05.56,5.28,3Z"/><path class="d" d="M243,303.23c4.86,2.06,3.91,6.81,3.85,8.05-.19,4-2.76,4.51-5.63,4.61a10.87,10.87,0,0,1-4.87-1.23c-2.18-1.27-1.61-4.75-.27-6.7C239.46,303.12,241.5,302.6,243,303.23Z"/><path class="g" d="M246.46,313.42a22.43,22.43,0,0,0,7.12,2c-3.58-5.25-3.2-10.78-11.73-14.11C241.76,306.44,241.81,311.08,246.46,313.42Z"/><path class="h" d="M223.19,336.91s3.49.89,4.67,11.7c.83,7.62,8.43-2.05,8.43-2.05l-2.73-12.2Z"/><path class="e" d="M394.49,485.61H184.44a1.1,1.1,0,0,1-1.2-.94,1,1,0,0,1,1-.94H394.26c.9,0,1.43.42,1.43.94A1.1,1.1,0,0,1,394.49,485.61Z"/><path class="i" d="M320,374c5.72-18.79-4.91-32.28,8.27-41.8,5.81-4.2,13.85-7,19.6-2.71,0,0,5,2.55,7,6.78,4.9,9-8.12,40.67-2.36,72.93,1.94,10.87-1.49,17.55-5.42,17.43l-27.3-.48c-3.52-.06-8.51-1.18-11-3.65C305.34,419.13,318.55,378.47,320,374Z"/><rect class="j" x="132.48" y="-14.6" width="34.25" height="433.07" transform="translate(104.26 -45.25) rotate(26.14)"/><path class="d" d="M97.53,319a4,4,0,0,1,7.62,1.39c.46,6.37,2.77,11.27,7.08,15,10.07,8.69,27.23,7.5,27.4,7.48a4,4,0,0,1,.6,8c-.84.06-20.68,1.43-33.23-9.4-5.92-5.1-9.22-12-9.83-20.47A4,4,0,0,1,97.53,319Z"/><path class="f" d="M151.95,338.48A35,35,0,0,1,127,341.36l-4.66,16.07s10.89,5.3,27,5.52C167.22,363.18,151.95,338.48,151.95,338.48Z"/><rect class="k" x="206.83" y="108.5" width="191.94" height="191.94" transform="translate(25.69 -33.66) rotate(6.64)"/><path class="b" d="M333.73,343.94a4.15,4.15,0,0,1-1.43-.54c-34.08-20.9-44-46.33-44.41-47.41a4.15,4.15,0,0,1,7.76-2.95h0c.09.24,9.49,24,41,43.27a4.15,4.15,0,0,1-2.91,7.63Z"/></svg>