<svg xmlns="http://www.w3.org/2000/svg" viewBox="0 0 402.63 486.88"><defs><style>.a{fill:#f2f2f2;}.b{fill:#8b6238;}.c{fill:#ff667c;}.d{fill:#ffe76e;}.e{fill:#29abe2;}.f{fill:#10364b;}.g{fill:#42210b;}.h{fill:#000200;}.i{fill:#e6ccc3;}.j{fill:#60d1d6;}</style></defs><title>POPPETJES</title><path class="a" d="M71.24,83.55h140A20.93,20.93,0,0,0,202,51.34a25.7,25.7,0,0,0-35-16.47,36.94,36.94,0,0,0-20.65-6.27,37.48,37.48,0,0,0-4.09.23A37.11,37.11,0,0,0,76.06,48.1q0,.49-.08,1a20.93,20.93,0,0,0-4.74,34.48Z"/><path class="b" d="M123.43,340a4,4,0,0,1-.21-7.93A52.56,52.56,0,0,0,139.57,326c9.6-5.73,13.65-13.72,12-23.76A4,4,0,1,1,159.5,301c1.36,8.39-.27,15.86-4.86,22.19-9.72,13.43-29.34,16.67-30.17,16.8A3.93,3.93,0,0,1,123.43,340Z"/><path class="c" d="M107.79,324.64s8.23,6.12,22.58,1.81l9.48,14.21a62.49,62.49,0,0,1-28.33,8.85C93.29,350.57,107.79,324.64,107.79,324.64Z"/><path class="d" d="M74.74,195.47a64.22,64.22,0,1,0,128,10.74l64,5.37L256,339.57,0,318.08l10.74-128Z"/><polygon class="e" points="114.02 485.42 94.55 485.38 99.25 473.29 104.46 471.14 105.37 480.61 114.02 485.42"/><polygon class="e" points="168.34 485.42 148.86 485.38 153.56 473.29 158.77 471.14 159.68 480.61 168.34 485.42"/><path class="f" d="M105.47,479.56l-10.26-8c9.23-11.86,22.74-31.29,23.88-37.34.9-4.78-6.31-21.65-13.6-34.41l11.28-6.45c4.1,7.17,17.31,31.49,15.09,43.26C129.74,447.94,109.51,474.38,105.47,479.56Z"/><path class="f" d="M162,478.54l-12.54-3.42c4-14.5,9-37.63,7.68-43.66-1-4.74-14.14-17.55-25.79-26.53l7.94-10.29c6.54,5,28.08,22.41,30.57,34.13C172.23,440,163.71,472.2,162,478.54Z"/><path class="c" d="M132.42,345.61c-1.57-13-12.24-26-31.84-18.39-28.09,11-6.2,62.25,5,84.68,3.28,6.56,3.33,11.48,10.53,10.1.21,0,37-15.31,37.23-15.4,10.29-5,.67-12.89-10.27-30.16a51.25,51.25,0,0,1-2.56-4.47C136.82,364.5,134,358.34,132.42,345.61Z"/><path class="b" d="M111.21,323c3.24-4.79-.46-8.6-1.25-9.71-2.57-3.59-5.22-2.51-7.92-.89a11.92,11.92,0,0,0-3.75,4c-1.25,2.47,1.35,5.33,3.74,6.33C108,325.23,110.16,324.49,111.21,323Z"/><rect class="b" x="101.45" y="315.9" width="6.7" height="13.38" rx="3.35" ry="3.35" transform="translate(273.49 616.86) rotate(168.17)"/><path class="g" d="M101.53,323.29c3.27-.47,1.24-5.66,1.25-5.66,4,3.51,2.35-.77,1.23-2.11a8.9,8.9,0,0,0,2.93-1,3.3,3.3,0,0,0,2-2.44c.52-5.75-7.67-2.94-9.93-1.23s-4,4.39-3.31,7.38C96.28,320.7,98.64,323.71,101.53,323.29Z"/><path class="f" d="M173.09,486.88H54.25a1.1,1.1,0,0,1-1.2-.94,1,1,0,0,1,1-.94H172.86c.9,0,1.43.42,1.43.94A1.1,1.1,0,0,1,173.09,486.88Z"/><path class="b" d="M124.68,327.3a4,4,0,0,0,1.41-.6c.7-.47,17.11-11.69,20.25-28,1.48-7.67-.19-15.13-5-22.16a4,4,0,1,0-6.61,4.5c5.71,8.41,5.42,17.36-.87,26.61a52.68,52.68,0,0,1-12.27,12.4,4,4,0,0,0,3.07,7.23Z"/><path class="c" d="M102.21,326.55A35,35,0,0,0,125.39,317l11.86,11.8s-7,9.92-20.94,17.9C100.81,355.56,102.21,326.55,102.21,326.55Z"/><path class="f" d="M395.61,486.88H276.76a1.1,1.1,0,0,1-1.2-.94,1,1,0,0,1,1-.94H395.37c.9,0,1.43.42,1.43.94A1.1,1.1,0,0,1,395.61,486.88Z"/><polygon class="f" points="369.22 486.03 388.69 485.83 383.9 473.77 378.67 471.67 377.83 481.15 369.22 486.03"/><polygon class="f" points="316.71 485.94 336.19 485.74 331.39 473.68 326.16 471.58 325.33 481.06 316.71 485.94"/><path class="f" d="M377.72,480.09,387.92,472c-9.32-11.79-23-31.11-24.17-37.15-.94-4.77,6.14-21.7,13.33-34.51L365.74,394c-4,7.2-17.06,31.62-14.75,43.38C353.2,448.67,373.65,474.94,377.72,480.09Z"/><path class="f" d="M321.21,479.52,333.72,476c-4.07-14.47-9.26-37.56-8-43.59,1-4.75,14-17.66,25.57-26.73l-8-10.23c-6.5,5.1-27.9,22.64-30.29,34.37C310.66,441.08,319.42,473.2,321.21,479.52Z"/><path class="d" d="M357,353.33c1.47-13,12-26.13,31.69-18.64,36.31,13.84-9.85,95.3-9.85,95.3s-44.59-3.83-51.43-22.25c3.64-3.78,16.76-17.9,21.69-28C352.76,372.26,355.57,366.08,357,353.33Z"/><path class="c" d="M334.36,283.29a4,4,0,0,1,7.52,1c7.39,37.82,20.61,43,20.74,43a4.06,4.06,0,0,1,2.51,5,3.94,3.94,0,0,1-4.86,2.62c-1.81-.53-17.88-6.37-26.24-49.16A4,4,0,0,1,334.36,283.29Z"/><path class="d" d="M377.67,332.52a35,35,0,0,1-21.54-12.83l-13.46,9.95s5.44,10.82,18.11,20.76C374.83,361.43,377.67,332.52,377.67,332.52Z"/><path class="c" d="M377,329.56c-3.28-4.77.39-8.6,1.17-9.72,2.54-3.61,5.2-2.55,7.92-1a11.92,11.92,0,0,1,3.78,4c1.27,2.46-1.31,5.34-3.69,6.36C380.3,331.76,378.09,331,377,329.56Z"/><rect class="c" x="380.09" y="322.41" width="6.7" height="13.38" rx="3.35" ry="3.35" transform="translate(72.41 -69.14) rotate(11.37)"/><path class="h" d="M392.54,324.63c.7-3-1-5.62-3.37-7.36s-10.49-4.43-9.92,1.31a3.3,3.3,0,0,0,2,2.42,8.9,8.9,0,0,0,2.94,1c-1.11,1.35-2.69,5.64,1.25,2.11,0,0-2,5.21,1.3,5.65C389.61,330.17,391.95,327.15,392.54,324.63Z"/><path class="i" d="M202.79,206.6a68.18,68.18,0,0,1,54,125.2h0l27,62.61A136.37,136.37,0,0,0,175.76,144l27,62.61Z"/><path class="c" d="M325.45,319.73a4,4,0,0,1,7.62,1.39c.46,6.37,2.77,11.27,7.08,15,10.07,8.69,27.23,7.5,27.4,7.48a4,4,0,0,1,.6,8c-.84.06-20.68,1.43-33.23-9.4-5.92-5.1-9.22-12-9.83-20.47A4,4,0,0,1,325.45,319.73Z"/><path class="d" d="M379.87,339.21A35,35,0,0,1,355,342.08l-4.66,16.07s10.89,5.3,27,5.52C395.15,363.91,379.87,339.21,379.87,339.21Z"/><rect class="j" x="158.74" y="-21.11" width="34.25" height="275.9" transform="translate(235.9 319.26) rotate(-140.12)"/></svg>