<svg xmlns="http://www.w3.org/2000/svg" viewBox="0 0 332.98 446.66"><defs><style>.a{fill:#f2f2f2;}.b{fill:#e6ccc3;}.c{fill:#fff;}.d{fill:#ff667c;}.e{fill:#10364b;}.f{fill:#000200;}.g{fill:#8b6238;}.h{fill:#ffe76e;}.i{fill:#60d1d6;}</style></defs><title>POPPETJES</title><path class="a" d="M14.58,92.85H160.92A27.84,27.84,0,0,0,148.51,50,34.18,34.18,0,0,0,103.6,27.44,49.36,49.36,0,0,0,36.1,41.78,27.84,27.84,0,0,0,14.58,92.85Z"/><circle class="b" cx="199.45" cy="96.94" r="96.92" transform="translate(-16.5 46.5) rotate(-12.78)"/><path class="c" d="M163.72,98.29c-2.81.64-3.86-.22-4.31-2.21l-.16-.7c-.45-2,.13-3.22,2.94-3.86l8.17-1.85c-.5-16.84,7.82-29.4,22.89-32.82,14.72-3.34,25.42,3.81,26.61,9.06.82,3.62-3.26,5.65-3.57,5.36-5.81-6.67-12.54-9.81-22-7.66C183.9,66,178,75.28,178.07,87.92L203.3,82.2c2.8-.64,3.86.23,4.31,2.21l.16.7c.45,2-.13,3.22-2.93,3.85L178.67,94.9a29.8,29.8,0,0,0,.62,3.3l1.27,5.61a22.56,22.56,0,0,0,.75,2.77l26.16-5.93c2.8-.64,3.86.24,4.31,2.22l.16.69c.45,2-.13,3.23-2.93,3.86l-25.23,5.72c5.41,11.42,14.95,17.73,25.93,15.24,9.58-2.17,14.07-8.35,16-17.37.13-.53,4.81-.48,5.68,3.37,1.27,5.61-5.62,17.48-19.75,20.69-16,3.63-28.88-3.89-35.64-20.16l-8.06,1.83c-2.81.64-3.86-.23-4.31-2.22l-.16-.69c-.45-2,.13-3.23,2.93-3.87l7.36-1.67a26.54,26.54,0,0,1-.8-3L171.73,100a34.51,34.51,0,0,1-.65-3.41Z"/><path class="d" d="M255.8,279.51a4,4,0,0,1,7.62,1.39c.46,6.37,2.77,11.27,7.08,15,10.07,8.69,27.23,7.5,27.4,7.48a4,4,0,1,1,.6,8c-.84.06-20.68,1.43-33.23-9.4-5.92-5.1-9.22-12-9.83-20.47A4,4,0,0,1,255.8,279.51Z"/><path class="e" d="M310.22,299a35,35,0,0,1-24.91,2.87l-4.66,16.07s10.89,5.3,27,5.52C325.5,323.69,310.22,299,310.22,299Z"/><path class="e" d="M326,446.66H207.11a1.1,1.1,0,0,1-1.2-.94,1,1,0,0,1,1-.94H325.72c.9,0,1.43.42,1.43.94A1.1,1.1,0,0,1,326,446.66Z"/><polygon class="e" points="299.57 445.81 319.04 445.61 314.25 433.55 309.02 431.45 308.18 440.93 299.57 445.81"/><polygon class="e" points="247.06 445.72 266.53 445.52 261.74 433.46 256.51 431.36 255.68 440.84 247.06 445.72"/><path class="b" d="M308.07,439.87l10.19-8.07c-9.32-11.79-23-31.11-24.17-37.15-.94-4.77,6.14-21.7,13.33-34.51l-11.33-6.36c-4,7.2-17.06,31.62-14.75,43.38C283.55,408.45,304,434.72,308.07,439.87Z"/><path class="b" d="M251.55,439.3l12.51-3.52c-4.07-14.47-9.26-37.56-8-43.59,1-4.75,14-17.66,25.57-26.73l-8-10.23c-6.5,5.1-27.9,22.64-30.29,34.37C241,400.86,249.77,433,251.55,439.3Z"/><path class="e" d="M287.36,313.11c1.47-13,12-26.13,31.69-18.64,36.31,13.84-9.85,95.3-9.85,95.3s-44.59-3.83-51.43-22.25c3.64-3.78,16.76-17.9,21.69-28C283.11,332,285.92,325.86,287.36,313.11Z"/><path class="d" d="M307.71,289.18c-2.74-5.1,1.33-8.51,2.23-9.53,2.92-3.31,5.45-2,8-.08a11.92,11.92,0,0,1,3.32,4.39c1,2.58-1.88,5.17-4.36,5.92C310.71,291.73,308.6,290.78,307.71,289.18Z"/><rect class="d" x="310.78" y="282.74" width="6.7" height="13.38" rx="3.35" ry="3.35" transform="translate(102.53 -81.61) rotate(17.65)"/><path class="f" d="M323.66,286c1-2.9-.42-5.7-2.54-7.68s-9.94-5.55-10,.22a3.3,3.3,0,0,0,1.7,2.62,8.9,8.9,0,0,0,2.81,1.33c-1.25,1.22-3.29,5.32,1,2.23,0,0-2.54,5,.67,5.76C320.14,291.16,322.8,288.42,323.66,286Z"/><path class="e" d="M83.43,370.2C95.52,389.89,90,430.87,90,430.87l-6.77.16s-3.48-41.35-14.88-51.28l-2.64.48A260.72,260.72,0,0,1,50.16,429.3l-6.1.52s6.58-35.72,7-47.6,4-1.25,4.85-15.94C56.38,358,74.66,355.91,83.43,370.2Z"/><path class="b" d="M50,429.31c-2.85,7.27-2.46,12.24-.23,12.55,4,.56,3.67,3.89,3.67,3.89l-13,.13,3.63-16.07Z"/><path class="b" d="M90,430.87c-.5,8.48,1,9.84,3,10.74,4.3,1.86,3.58,4.24,3.58,4.24H84.86L83.27,431Z"/><path class="f" d="M79,279.32c-6.1-7.07-16.62-.19-20.13,6.17-3.15.55-5.43,2.36-7.93,4.6C43.26,297,56,306.84,63.49,301.88c4.83-.31,10-4.63,11.32-9.83C80,290,83.76,284.86,79,279.32Z"/><path class="g" d="M68.19,282.76a39.25,39.25,0,0,0-4.92,13.73c-1.1,7.17,9,9.24,10.12,2.07a24.73,24.73,0,0,1,2.76-8.5c1.46-2.56,1.59-5.83-.75-8-1.94-1.78-5.74-1.9-7.22.68Z"/><path class="g" d="M75.79,280.46c-5.27-.15-6.39,4.56-6.86,5.72-1.51,3.73.63,5.25,3.19,6.53a10.87,10.87,0,0,0,4.94.91c2.51-.25,3.44-3.65,3-6C79.09,281.86,77.45,280.53,75.79,280.46Z"/><path class="f" d="M68.6,288.82a22.43,22.43,0,0,1-7.38-.05c4.87-4.08,6-9.5,15.12-10.39C75,283.38,73.72,287.82,68.6,288.82Z"/><path class="g" d="M117,281.88c-7.95,16.21-30.09,27.86-46.37,16.8-4-2.74-7.85,3.79-3.83,6.52,19.55,13.29,47,.33,56.72-19.48,2.13-4.34-4.37-8.22-6.52-3.83Z"/><path class="b" d="M64.52,295.1c4.3-.58,11.63,1.78,14.14,4.91,5.89,7.35,4.39,18,.93,26.12-10.76,25.12,1.58,33.86,12,57.54l-40.77,2c-3.16-9.55-15-53.29-2.6-75.8C51.92,303.27,57.29,296.09,64.52,295.1Z"/><path class="g" d="M63.47,295.29s7.63,11.37,11.2,12.13-.94-10.7-.94-10.7S67.83,291.6,63.47,295.29Z"/><path class="e" d="M35.11,446.66h92.23a1.1,1.1,0,0,0,1.2-.94,1,1,0,0,0-1-.94H35.35c-.9,0-1.43.42-1.43.94A1.1,1.1,0,0,0,35.11,446.66Z"/><path class="e" d="M151.61,446.66h61.31a1.1,1.1,0,0,0,1.2-.94,1,1,0,0,0-1-.94H151.84c-.9,0-1.43.42-1.43.94A1.1,1.1,0,0,0,151.61,446.66Z"/><rect class="h" x="94.19" y="281.19" height="24.23" transform="translate(-142.53 96.17) rotate(-32.41)"/><rect class="b" x="93.87" y="281.19" width="0.63" height="24.23" transform="translate(-142.53 96.17) rotate(-32.41)"/><rect class="h" x="120.17" y="322.15" height="24.19" transform="matrix(0.84, -0.54, 0.54, 0.84, -160.42, 116.47)"/><rect class="b" x="119.86" y="322.15" width="0.63" height="24.19" transform="translate(-160.42 116.47) rotate(-32.41)"/><polygon class="h" points="160.1 351.92 160.1 351.92 201.01 325.95 201.01 325.95 160.1 351.92"/><rect class="b" x="156.32" y="338.62" width="48.46" height="0.63" transform="translate(-153.53 149.56) rotate(-32.41)"/><rect class="h" x="113.68" y="323.99" height="0.04" transform="translate(-155.95 111.4) rotate(-32.41)"/><polygon class="b" points="113.96 323.86 113.42 324.2 113.93 323.82 113.96 323.86"/><polygon class="h" points="201.01 325.95 201.01 325.95 241.92 299.97 241.92 299.97 201.01 325.95"/><rect class="b" x="197.24" y="312.65" width="48.46" height="0.63" transform="translate(-133.24 167.45) rotate(-32.41)"/><polygon class="h" points="241.92 299.97 241.92 299.97 282.84 274 282.84 274 241.92 299.97"/><rect class="b" x="238.15" y="286.67" width="48.46" height="0.63" transform="translate(-112.95 185.33) rotate(-32.41)"/><rect class="h" x="257.84" y="177.3" height="24.23" transform="translate(-61.36 167.7) rotate(-32.41)"/><rect class="b" x="257.52" y="177.3" width="0.63" height="24.23" transform="translate(-61.36 167.7) rotate(-32.41)"/><rect class="h" x="283.83" y="218.25" height="24.19" transform="matrix(0.84, -0.54, 0.54, 0.84, -79.25, 188)"/><rect class="b" x="283.51" y="218.25" width="0.63" height="24.19" transform="translate(-79.25 188) rotate(-32.41)"/><rect class="h" x="277.33" y="220.1" height="0.04" transform="matrix(0.84, -0.54, 0.54, 0.84, -74.78, 182.93)"/><polygon class="b" points="277.61 219.97 277.08 220.3 277.58 219.93 277.61 219.97"/><polygon class="h" points="162.07 264.61 202.99 238.64 243.9 212.67 264.36 199.68 264.33 199.64 223.42 225.62 182.51 251.59 141.59 277.56 100.68 303.54 100.7 303.57 121.16 290.59 162.07 264.61"/><polygon class="b" points="264.52 199.95 100.61 304.01 100.27 303.48 100.51 303.27 264.43 199.21 264.77 199.74 264.52 199.95"/><rect class="h" x="90.41" y="268.21" width="48.46" height="24.23" transform="translate(-132.39 105.11) rotate(-32.41)"/><path class="b" d="M142,277.66,100.58,304,87.26,283l41.44-26.31ZM100.78,303.1l40.38-25.64-12.65-19.92L88.13,283.18Z"/><rect class="h" x="131.33" y="242.23" width="48.46" height="24.23" transform="matrix(0.84, -0.54, 0.54, 0.84, -112.09, 122.99)"/><path class="b" d="M182.94,251.69,141.5,278l-13.33-21,41.45-26.31Zm-41.25,25.44,40.38-25.64-12.65-19.92L129,257.2Z"/><rect class="h" x="172.24" y="216.26" width="48.46" height="24.23" transform="translate(-91.8 140.87) rotate(-32.41)"/><path class="b" d="M223.85,225.71,182.41,252l-13.33-21,41.44-26.31ZM182.6,251.15,223,225.52l-12.65-19.92L170,231.23Z"/><polygon class="h" points="175.04 285.03 162.07 264.61 121.16 290.59 134.12 311.01 154.58 298.02 175.04 285.03"/><path class="b" d="M175.47,285.13,134,311.44l-13.3-21,41.44-26.31Zm-41.25,25.44,40.38-25.64L162,265,121.6,290.68Z"/><polygon class="h" points="195.49 272.05 215.95 259.06 202.99 238.64 162.07 264.61 175.04 285.03 195.49 272.05"/><path class="b" d="M216.39,259.16l-41.45,26.31-13.3-21,41.45-26.31ZM175.13,284.6,215.52,259l-12.63-19.89-40.38,25.64Z"/><polygon class="h" points="236.41 246.07 256.86 233.09 243.9 212.67 202.99 238.64 215.95 259.06 236.41 246.07"/><path class="b" d="M257.3,233.18l-41.44,26.31-13.3-21L244,212.23ZM216,258.62,256.43,233,243.8,213.1l-40.38,25.64Z"/><polygon class="h" points="167.57 318.48 154.6 298.06 134.15 311.04 113.69 324.03 126.65 344.45 147.11 331.46 167.57 318.48"/><path class="b" d="M168,318.57l-41.44,26.31-13.3-21,41.44-26.31ZM126.75,344l40.38-25.64-12.63-19.89-40.38,25.64Z"/><rect class="h" x="132.25" y="304.51" width="24.23" height="0.04" transform="translate(-140.73 124.81) rotate(-32.41)"/><polygon class="b" points="154.77 298.32 134.05 311.48 133.71 310.95 133.96 310.74 154.68 297.58 155.01 298.12 154.77 298.32"/><polygon class="h" points="175.06 285.07 154.6 298.06 167.57 318.48 188.02 305.49 208.48 292.5 195.52 272.08 175.06 285.07"/><path class="b" d="M208.92,292.6l-41.45,26.31-13.3-21,41.45-26.31ZM167.66,318,208,292.41l-12.63-19.89L155,298.15Z"/><rect class="h" x="152.71" y="291.52" width="24.23" height="0.04" transform="translate(-130.59 133.75) rotate(-32.41)"/><polygon class="b" points="175.49 285.17 154.51 298.49 154.17 297.96 154.41 297.75 175.13 284.6 175.49 285.17"/><rect class="h" x="173.16" y="278.54" width="24.23" height="0.04" transform="translate(-120.44 142.69) rotate(-32.41)"/><polygon class="b" points="195.69 272.35 174.96 285.5 174.63 284.97 174.87 284.77 195.59 271.61 195.93 272.14 195.69 272.35"/><polygon class="h" points="195.52 272.08 208.48 292.5 228.94 279.52 249.39 266.53 236.43 246.11 215.97 259.1 195.52 272.08"/><path class="b" d="M249.83,266.63l-41.44,26.31-13.3-21,41.44-26.31Zm-41.25,25.44L249,266.43l-12.63-19.89L196,272.18Z"/><rect class="h" x="193.62" y="265.55" width="24.23" height="0.04" transform="translate(-110.29 151.63) rotate(-32.41)"/><polygon class="b" points="216.14 259.36 195.42 272.52 195.08 271.99 195.32 271.78 216.05 258.62 216.38 259.16 216.14 259.36"/><rect class="h" x="214.08" y="252.56" width="24.23" height="0.04" transform="translate(-100.15 160.57) rotate(-32.41)"/><polygon class="b" points="236.6 246.38 215.88 259.53 215.54 259 215.78 258.79 236.5 245.64 236.84 246.17 236.6 246.38"/><polygon class="h" points="167.57 318.48 147.11 331.46 160.1 351.92 201.01 325.95 188.02 305.49 167.57 318.48"/><path class="b" d="M201.44,326,160,352.35l-13.32-21,41.44-26.31ZM160.2,351.49l40.38-25.64-12.65-19.93-40.38,25.64Z"/><rect class="h" x="105.3" y="295.2" width="24.23" height="24.19" transform="translate(-146.41 110.79) rotate(-32.41)"/><path class="b" d="M134.56,311.1l-21,13.32-13.3-21,21-13.32Zm-20.79,12.45,19.92-12.65L121.06,291l-19.92,12.65Z"/><rect class="h" x="111.79" y="317.5" width="24.23" height="0.04" transform="translate(-150.88 115.87) rotate(-32.41)"/><polygon class="b" points="134.32 311.31 113.59 324.47 113.26 323.93 113.5 323.73 134.22 310.57 134.56 311.1 134.32 311.31"/><rect class="h" x="131.26" y="336.07" width="24.23" height="24.23" transform="matrix(0.84, -0.54, 0.54, 0.84, -164.28, 131.08)"/><path class="b" d="M160.53,352l-21,13.32-13.32-21,21-13.32Zm-20.79,12.46,19.92-12.65L147,331.9l-19.92,12.65Z"/><polygon class="h" points="208.48 292.5 188.02 305.49 201.01 325.95 241.92 299.97 228.94 279.52 208.48 292.5"/><path class="b" d="M242.36,300.07l-41.45,26.31-13.32-21L229,279.08Zm-41.25,25.44,40.38-25.64-12.65-19.93-40.38,25.64Z"/><polygon class="h" points="249.39 266.53 228.94 279.52 241.92 299.97 282.84 274 269.85 253.54 249.39 266.53"/><path class="b" d="M283.27,274.1l-41.44,26.31-13.32-21,41.44-26.31ZM242,299.54,282.4,273.9,269.75,254l-40.38,25.64Z"/><rect class="h" x="213.15" y="190.29" width="48.46" height="24.23" transform="translate(-71.5 158.76) rotate(-32.41)"/><path class="b" d="M264.77,199.74l-41.44,26.31-13.33-21,41.44-26.31Zm-41.25,25.44,40.38-25.64-12.65-19.92-40.38,25.64Z"/><rect class="h" x="248.49" y="204.29" width="24.23" height="24.19" transform="translate(-75.38 173.38) rotate(-32.41)"/><path class="b" d="M277.75,220.2l-21,13.32-13.3-21,21-13.32ZM257,232.65,276.89,220l-12.63-19.89-19.93,12.65Z"/><polygon class="h" points="236.43 246.11 249.39 266.53 269.85 253.54 290.31 240.56 277.34 220.14 256.89 233.12 236.43 246.11"/><path class="b" d="M290.74,240.65,249.3,267,236,246l41.44-26.31ZM249.49,266.1l40.38-25.64-12.63-19.89-40.38,25.64Z"/><rect class="h" x="234.53" y="239.58" width="24.23" height="0.04" transform="matrix(0.84, -0.54, 0.54, 0.84, -90, 169.51)"/><polygon class="b" points="257.06 233.39 236.33 246.54 235.97 245.97 256.96 232.65 257.3 233.18 257.06 233.39"/><rect class="h" x="254.99" y="226.59" width="24.23" height="0.04" transform="translate(-79.85 178.46) rotate(-32.41)"/><polygon class="b" points="277.51 220.4 256.79 233.56 256.45 233.03 256.69 232.82 277.42 219.66 277.75 220.2 277.51 220.4"/><rect class="h" x="274.46" y="245.16" width="24.23" height="24.23" transform="translate(-93.26 193.67) rotate(-32.41)"/><path class="b" d="M303.73,261.11l-21,13.32-13.32-21,21-13.32Zm-20.79,12.46,19.93-12.65L290.21,241l-19.93,12.65Z"/><path class="g" d="M111,317.94c-14.65,10-39.33,9-47.72-8.38-2.44-5.06-9.79-.29-7.36,4.74,10.44,21.64,41.55,23.46,59.83,11,4.64-3.16-.07-10.55-4.74-7.36Z"/><path class="d" d="M273.56,243.81a4,4,0,0,1,7.5,1.08c7,37.9,20.12,43.23,20.25,43.28a4.06,4.06,0,0,1,2.45,5.05,3.94,3.94,0,0,1-4.89,2.57c-1.8-.55-17.81-6.57-25.68-49.45A4,4,0,0,1,273.56,243.81Z"/><path class="e" d="M316.31,293.54a35,35,0,0,1-21.4-13.07l-13.57,9.79s5.32,10.89,17.87,21C313.14,322.41,316.31,293.54,316.31,293.54Z"/><polygon class="i" points="118.74 262.81 107.75 155.01 200.59 210.9 118.74 262.81"/></svg>