<svg xmlns="http://www.w3.org/2000/svg" viewBox="0 0 361.14 475.7"><defs><style>.a{fill:#f2f2f2;}.b{fill:#29abe2;}.c{fill:#ff667c;}.d{fill:#10364b;}.e{fill:#ffe76e;}.f{fill:#ed1c24;}.g{fill:#93278f;}.h{fill:#60d1d6;}.i{fill:#e6ccc3;}</style></defs><title>POPPETJES</title><path class="a" d="M14.58,146.72H160.92a27.84,27.84,0,0,0-12.4-42.83A34.18,34.18,0,0,0,103.6,81.32,49.36,49.36,0,0,0,36.1,95.65a27.84,27.84,0,0,0-21.52,51.07Z"/><path class="b" d="M134.25,308.55a4,4,0,0,0-7.62,1.39c-.46,6.37-2.77,11.27-7.08,15-10.07,8.69-27.23,7.5-27.4,7.48a4,4,0,1,0-.6,8c.84.06,20.68,1.43,33.23-9.4,5.92-5.1,9.22-12,9.83-20.47A4,4,0,0,0,134.25,308.55Z"/><path class="c" d="M79.83,328a35,35,0,0,0,24.91,2.87L109.4,347s-10.89,5.3-27,5.52C64.55,352.72,79.83,328,79.83,328Z"/><path class="d" d="M64.1,475.7H182.94a1.1,1.1,0,0,0,1.2-.94,1,1,0,0,0-1-.94H64.33c-.9,0-1.43.42-1.43.94A1.1,1.1,0,0,0,64.1,475.7Z"/><polygon class="b" points="90.48 474.84 71.01 474.65 75.8 462.59 81.03 460.49 81.87 469.96 90.48 474.84"/><polygon class="b" points="142.99 474.75 123.52 474.56 128.31 462.5 133.54 460.4 134.38 469.88 142.99 474.75"/><path class="d" d="M82,468.91l-10.19-8.07c9.32-11.79,23-31.11,24.17-37.15.94-4.77-6.14-21.7-13.33-34.51L94,382.82c4,7.2,17.06,31.62,14.75,43.38C106.5,437.49,86.05,463.76,82,468.91Z"/><path class="d" d="M138.5,468.33,126,464.81c4.07-14.47,9.26-37.56,8-43.59-1-4.75-14-17.66-25.57-26.73l8-10.23c6.5,5.1,27.9,22.64,30.29,34.37C149,429.9,140.28,462,138.5,468.33Z"/><path class="c" d="M102.69,342.15c-1.47-13-12-26.13-31.69-18.64-36.31,13.84,9.85,95.3,9.85,95.3s44.59-3.83,51.43-22.25c-3.64-3.78-16.76-17.9-21.69-28C106.94,361.08,104.13,354.89,102.69,342.15Z"/><path class="b" d="M82.34,318.22c2.74-5.1-1.33-8.51-2.23-9.53-2.92-3.31-5.45-2-8-.08A11.92,11.92,0,0,0,68.81,313c-1,2.58,1.88,5.17,4.36,5.92C79.34,320.77,81.45,319.81,82.34,318.22Z"/><rect class="b" x="72.57" y="311.78" width="6.7" height="13.38" rx="3.35" ry="3.35" transform="translate(244.82 598.93) rotate(162.35)"/><path class="d" d="M72.74,319.49c3.21-.8.66-5.76.67-5.76,4.3,3.09,2.26-1,1-2.23a8.9,8.9,0,0,0,2.81-1.33,3.3,3.3,0,0,0,1.7-2.62c-.06-5.77-7.93-2.15-10-.22s-3.57,4.78-2.54,7.68C67.25,317.45,69.91,320.2,72.74,319.49Z"/><path class="e" d="M311.62,399.23C299.54,418.93,305,459.9,305,459.9l6.77.16s3.48-41.35,14.88-51.28l2.64.48a260.72,260.72,0,0,0,15.59,49.08l6.1.52s-6.58-35.72-7-47.6-4-1.25-4.85-15.94C338.67,387,320.39,384.94,311.62,399.23Z"/><path class="d" d="M345,458.34c2.85,7.27,2.46,12.24.23,12.55-4,.56-3.67,3.89-3.67,3.89l13,.13L351,458.85Z"/><path class="d" d="M305,459.9c.5,8.48-1,9.84-3,10.74-4.3,1.86-3.58,4.24-3.58,4.24h11.79l1.59-14.83Z"/><path class="f" d="M315,310.16c3.27-8.74,15.53-5.93,21-1.17,3.14-.58,5.91.34,9,1.58,9.58,3.8,1,17.48-7.71,15.4-4.63,1.38-11-.88-14-5.31C317.76,320.58,312.46,317,315,310.16Z"/><path class="g" d="M326.82,311.13a39.25,39.25,0,0,1,4.92,13.73c1.1,7.17-9,9.24-10.12,2.07a24.73,24.73,0,0,0-2.76-8.5c-1.46-2.56-1.59-5.83.75-8,1.94-1.78,5.74-1.9,7.22.68Z"/><path class="g" d="M319.23,308.84c5.27-.15,6.39,4.56,6.86,5.72,1.51,3.73-.63,5.25-3.19,6.53A10.87,10.87,0,0,1,318,322c-2.51-.25-3.44-3.65-3-6C315.92,310.24,317.56,308.91,319.23,308.84Z"/><path class="f" d="M327.34,316.5a22.43,22.43,0,0,0,7-2.27c-5.88-2.43-8.58-7.26-17.55-5.37C319.58,313.24,322.16,317.09,327.34,316.5Z"/><path class="g" d="M284.21,297.28c1.79,18,18.48,36.61,37.6,31.91,4.73-1.16,6,6.29,1.32,7.45-23,5.64-44.17-16.09-46.36-38-.48-4.81,7-6.18,7.45-1.32Z"/><path class="h" d="M330.53,324.14c-4.3-.58-11.63,1.78-14.14,4.91-5.89,7.35-4.39,18-.93,26.12,10.76,25.12-1.58,33.86-12,57.54l40.77,2c3.16-9.55,15-53.29,2.6-75.8C343.13,332.31,337.76,325.12,330.53,324.14Z"/><path class="g" d="M331.58,324.33s-7.63,11.37-11.2,12.13.94-10.7.94-10.7S327.22,320.63,331.58,324.33Z"/><path class="d" d="M359.94,475.7H267.7a1.1,1.1,0,0,1-1.2-.94,1,1,0,0,1,1-.94H359.7c.9,0,1.43.42,1.43.94A1.1,1.1,0,0,1,359.94,475.7Z"/><path class="d" d="M64.1,475.7H182.94a1.1,1.1,0,0,0,1.2-.94,1,1,0,0,0-1-.94H64.33c-.9,0-1.43.42-1.43.94A1.1,1.1,0,0,0,64.1,475.7Z"/><path class="e" d="M277.23,227.71a68.18,68.18,0,0,1-133.68-26.94h0L76.71,187.29a136.37,136.37,0,0,0,267.37,53.87L277.23,227.7Z"/><path class="g" d="M283.32,319.2c6.09,16.65,26.71,30.24,43.67,21,4.93-2.69,8.12,5.47,3.22,8.14-21.09,11.51-47.44-5.14-55-25.91-1.93-5.28,6.2-8.53,8.14-3.22Z"/><path class="b" d="M116.49,272.85a4,4,0,0,0-7.5,1.08c-7,37.9-20.12,43.23-20.25,43.28a4.06,4.06,0,0,0-2.45,5.05,3.94,3.94,0,0,0,4.89,2.57c1.8-.55,17.81-6.57,25.68-49.45A4,4,0,0,0,116.49,272.85Z"/><path class="c" d="M73.74,322.57a35,35,0,0,0,21.4-13.07l13.57,9.79s-5.32,10.89-17.87,21C76.91,351.44,73.74,322.57,73.74,322.57Z"/><path class="i" d="M139.55,31a96.92,96.92,0,1,1,10.88,193.54l1.36,24.19,121-6.8L259.15,0l-121,6.8Z"/></svg>