<svg xmlns="http://www.w3.org/2000/svg" viewBox="0 0 422.32 435.35"><defs><style>.a{fill:#ff667c;}.b{fill:#ffe76e;}.c{fill:#f2f2f2;}.d{fill:#e6ccc3;}.e{fill:#fff;}.f{fill:#000200;}.g{fill:#c0282c;}.h{fill:#10364b;}.i{fill:#60d1d6;}.j{fill:#662d91;}</style></defs><title>POPPETJES</title><path class="a" d="M362.48,277.62a4,4,0,0,0,1.3-.44c.65-.35,15.93-8.83,18.08-24.34,1.46-10.5-3.42-21.31-14.5-32.14a4,4,0,0,0-5.59,5.72c9.14,8.93,13.24,17.44,12.17,25.27-1.57,11.49-13.87,18.4-14,18.46a4,4,0,0,0,2.53,7.46Z"/><path class="b" d="M363.92,267.21c-1.22-1.79-.54,2.58-27.54,2.88-19.62.9,15.22,19,15.22,19s19.68-8.81,19.33-11S365.14,269,363.92,267.21Z"/><path class="b" d="M364.92,282.56s-3.32,1.42-2.82,12.28c.35,7.66-8.65-.73-8.65-.73l.82-12.47Z"/><path class="c" d="M206.33,96.49H13.09A36.76,36.76,0,0,1,29.47,39.93,45.14,45.14,0,0,1,88.78,10.12a65.18,65.18,0,0,1,89.13,18.93,36.77,36.77,0,0,1,28.42,67.44Z"/><circle class="d" cx="325.39" cy="146.23" r="96.92" transform="translate(-15.29 40.4) rotate(-6.94)"/><path class="e" d="M289.71,143.94c-2.86.35-3.82-.62-4.06-2.64l-.09-.72c-.25-2,.46-3.19,3.31-3.54l8.32-1c1.21-16.8,10.77-28.46,26.11-30.32,15-1.82,24.9,6.38,25.56,11.72.45,3.69-3.82,5.29-4.1,5-5.1-7.23-11.48-11-21.11-9.86-10.58,1.29-17.37,10-18.61,22.53L330.72,132c2.85-.35,3.81.62,4.06,2.64l.09.72c.25,2-.46,3.19-3.31,3.54l-26.63,3.24a29.8,29.8,0,0,0,.28,3.34l.7,5.71a22.56,22.56,0,0,0,.47,2.83L333,150.73c2.85-.35,3.81.63,4.06,2.65l.09.71c.25,2-.46,3.2-3.31,3.55l-25.68,3.13c4.23,11.91,13.07,19.16,24.25,17.8,9.75-1.19,14.85-6.88,17.64-15.66.18-.51,4.83,0,5.31,3.93.7,5.71-7.36,16.82-21.75,18.57-16.29,2-28.34-6.81-33.41-23.67l-8.2,1c-2.86.35-3.82-.63-4.07-2.65l-.09-.71c-.25-2,.46-3.2,3.31-3.55l7.49-.91a26.54,26.54,0,0,1-.49-3.07l-.65-5.35a34.51,34.51,0,0,1-.3-3.46Z"/><path class="f" d="M24.56,415.37c-2.28,6.53-3.35,15.33-.92,15.84,4.91,1,5.22,3,5.22,3H15.57l2.7-18Z"/><path class="f" d="M65.6,419.59c-.12,8.8,1.1,11.6,3.4,12,5.21.89,5.21,2.62,5.21,2.62H61l-1.38-16.53Z"/><path class="a" d="M111.47,312.08h-.06c-40-.59-61.48-17.41-62.38-18.12a4.15,4.15,0,0,1,5.18-6.5c.38.3,20.55,15.78,57.33,16.31a4.15,4.15,0,0,1-.06,8.3Z"/><path class="d" d="M48.34,352.56c21.73,24.33,17.26,67,17.26,67l-6-1.92S53.39,373,41.13,363.23l-2.71.62a270.12,270.12,0,0,1-13.86,51.52l-6.29.82s5.16-37.27,5-49.59-.9-9,.78-17.46S36.77,339.6,48.34,352.56Z"/><path class="d" d="M61.29,265.15c-5.57-7.9-17.12-1.87-21.38,4.34-3.3.24-5.84,1.89-8.64,3.95-8.6,6.32,3.59,17.78,11.77,13.41,5,.17,10.79-3.76,12.67-9C61.29,276.31,65.66,271.34,61.29,265.15Z"/><path class="a" d="M47.51,269.49a32.67,32.67,0,0,0-5.19,11c-1.49,5.85,6.73,8.38,8.22,2.54a20.58,20.58,0,0,1,3-6.82c1.42-2,1.79-4.7,0-6.67-1.47-1.63-4.6-2-6,0Z"/><path class="a" d="M56.88,266c-5.42-.68-7,4.06-7.65,5.2-1.93,3.7.12,5.47,2.64,7.06a11.26,11.26,0,0,0,5,1.44c2.61,0,3.92-3.42,3.73-5.85C60.15,267.78,58.59,266.24,56.88,266Z"/><path class="d" d="M49.63,273.9a23.23,23.23,0,0,1-7.61-.8c5.44-3.72,7.15-9.19,16.64-9.19C56.8,268.93,55,273.38,49.63,273.9Z"/><path class="g" d="M43.73,279.87c4.45-.2,11.68,2.89,13.9,6.32,5.22,8.05,1.26,18.26-1.84,26.76-7.11,19.5-3.51,35.75,4.64,60.9l-41.07-7.41c-2.2-10-4.18-48,4.71-72.87C29,279.89,36.24,280.2,43.73,279.87Z"/><path class="a" d="M42.69,280.05s6.72,12.5,10.32,13.63.11-11.12.11-11.12S47.56,276.68,42.69,280.05Z"/><circle class="d" cx="171.53" cy="337.26" r="96.92" transform="translate(-55.83 34.81) rotate(-9.98)"/><path class="e" d="M135.78,336.87c-2.83.5-3.85-.41-4.2-2.42l-.13-.71c-.35-2,.29-3.21,3.12-3.71l8.26-1.45c.32-16.84,9.25-29,24.47-31.66,14.86-2.61,25.21,5.05,26.14,10.35.64,3.66-3.53,5.48-3.83,5.18-5.48-6.95-12-10.41-21.6-8.73-10.5,1.85-16.82,10.86-17.4,23.49l25.48-4.48c2.83-.5,3.84.41,4.19,2.42l.13.71c.35,2-.29,3.21-3.12,3.71l-26.42,4.65a29.8,29.8,0,0,0,.46,3.33l1,5.67A22.56,22.56,0,0,0,153,346l26.42-4.65c2.83-.5,3.84.42,4.2,2.43l.12.7c.35,2-.29,3.22-3.11,3.72l-25.48,4.48c4.85,11.67,14.07,18.44,25.15,16.49,9.67-1.7,14.46-7.65,16.79-16.57.15-.52,4.82-.24,5.51,3.65,1,5.67-6.46,17.19-20.74,19.7-16.16,2.84-28.66-5.3-34.62-21.87l-8.14,1.43c-2.83.5-3.85-.42-4.2-2.43l-.12-.7c-.35-2,.29-3.22,3.12-3.72l7.43-1.31a26.54,26.54,0,0,1-.65-3L143.7,339a34.51,34.51,0,0,1-.49-3.44Z"/><path class="a" d="M87.11,331a4.15,4.15,0,0,1-1.5-.28C48.35,316.26,34.06,293,33.47,292a4.15,4.15,0,0,1,7.11-4.28h0c.13.21,13.61,21.89,48,35.28a4.15,4.15,0,0,1-1.5,8Z"/><path class="h" d="M211.25,435.23H1.2a1.1,1.1,0,0,1-1.2-.94,1,1,0,0,1,1-.94H211c.9,0,1.43.42,1.43.94A1.1,1.1,0,0,1,211.25,435.23Z"/><rect class="i" x="220.24" y="49.18" width="34.25" height="345.58" transform="translate(553.9 295.53) rotate(150)"/><path class="h" d="M392.94,435.35H326.42a1.1,1.1,0,0,1-1.2-.94,1,1,0,0,1,1-.94h66.52c.9,0,1.43.42,1.43.94A1.1,1.1,0,0,1,392.94,435.35Z"/><path class="a" d="M351.26,356,338,351.91s-4.61,26.43-1.33,37c4,12.75,12.15,39.94,8.18,41.1-3.61,1.05-3.75,3.47-3.75,3.47H351.4S344.62,383.15,351.26,356Z"/><path class="a" d="M372.13,355.66l-13.74-2.33s-1.05,26.81,3.59,36.84c5.61,12.11,17.35,38,13.56,39.65-3.44,1.52-3.18,3.66-3.18,3.66h10S369.14,383.4,372.13,355.66Z"/><path class="h" d="M345.65,251.11c-8-4.62-15.55,5.19-16.76,12.25a12.74,12.74,0,0,0-5.9,6.85c-1.53,4,.44,8.54-3.32,10.47-3.17,1.62-5.94.46-8.31,3.58-2,2.62-1.94,6.61-.69,9.55,3.08,7.22,10.57,6.2,16.14,2.28a17.77,17.77,0,0,0,7.5-13.82,9,9,0,0,0,1.33-.87,8,8,0,0,0,2.86-4.27c4.39-1.85,7.83-7.54,7.37-12.82C350.08,260.76,351.88,254.72,345.65,251.11Z"/><path class="a" d="M321.8,279.84A4,4,0,0,0,322,272h0c-.14,0-14-2.87-18.94-13.35-3.39-7.14-2.07-16.49,3.94-27.77a4,4,0,0,0-7.07-3.76c-7.27,13.68-8.64,25.46-4.07,35,6.75,14.13,23.89,17.58,24.61,17.72A4,4,0,0,0,321.8,279.84Z"/><path class="b" d="M336.38,270.08c43.75.41,15.49,52.12,28.7,65.2l-32.8,12.06a360.32,360.32,0,0,0-2.69-42.43c-.6-4.46-4.92-11.07-6-18.51C321.22,271.05,326.53,270,336.38,270.08Z"/><path class="j" d="M361.42,326s15.86,28.9,10.33,53.29c0,0-16,11.82-33.47,12.26,0,0-9.46-14.71-6.42-60C331.87,331.63,345.59,338.36,361.42,326Z"/><path class="b" d="M320.36,268.14c1.16-1.82.62,2.56,27.61,2.05,19.64.31-14.64,19.47-14.64,19.47s-19.93-8.22-19.65-10.45S319.2,270,320.36,268.14Z"/><path class="a" d="M337.58,260.86a33,33,0,0,0,2.91,11.91c2.55,5.54,10.61,2.3,8.06-3.24a20.79,20.79,0,0,1-2-7.25c-.16-2.48-1.59-4.83-4.22-5.25-2.19-.35-4.91,1.33-4.75,3.82Z"/><path class="a" d="M340.49,252.36c-4.48,2.78-2.82,7.33-2.57,8.55.8,3.95,3.41,4,6.27,3.69a10.87,10.87,0,0,0,4.62-2c2-1.59.86-4.94-.76-6.66C344,251.7,341.92,251.5,340.49,252.36Z"/><path class="h" d="M338.46,264.1a22.43,22.43,0,0,1-6.67,3.17c2.61-5.8,1.26-11.17,9.08-15.95C341.87,256.4,342.63,261,338.46,264.1Z"/></svg>